<svg xmlns="http://www.w3.org/2000/svg" xmlns:xlink="http://www.w3.org/1999/xlink" width="641.22" height="114.344" viewBox="0 0 641.22 114.344"><defs><clipPath id="a"><rect width="641.22" height="114.344" fill="none"/></clipPath></defs><g clip-path="url(#a)"><path d="M214.445,78.319,210.04,21.826H197.024l-13.992,33.09c-1.627,4.017-3.342,9.3-3.342,9.3h-.2s-1.715-5.281-3.342-9.3l-13.992-33.09H149.142l-4.405,56.493c-.1,1.364-.763,2.153-2.115,2.153h-2.966V91.36h10.826c4.505,0,6.132-1.952,6.508-6.658l2.2-30.937a102.41,102.41,0,0,0,.1-10.863h.188a113.734,113.734,0,0,0,3.755,10.863L174.5,79.421h10.162l11.264-25.656c1.727-3.917,3.755-10.775,3.755-10.775h.188a100.67,100.67,0,0,0,.1,10.775l2.29,30.937c.388,4.706,1.915,6.658,6.42,6.658H219.5V80.472H216.51C215.259,80.472,214.545,79.683,214.445,78.319Zm99.007.388V41.4H301.3V64.315c0,8.911-4.893,16.845-13.7,16.845-6.032,0-7.509-4.117-7.509-10.187V47.958c0-4.493-1.915-6.558-6.42-6.558H262.077V51.975h3.842a1.89,1.89,0,0,1,2.1,2.153V73.513c0,13.616,6.42,19,16.858,19a18.385,18.385,0,0,0,16.845-10.375h.188s-.088,1.076-.088,2.253v1.364c0,3.529,2.2,5.582,6.408,5.582H319.5V80.86h-3.83a1.94,1.94,0,0,1-2.215-2.153Zm118.067,0V60.072c0-11.163-4.793-19.886-21.063-19.886-5.081,0-17.909.989-17.909,10.287v5.281H403.81v-2.6c0-2.741,4.305-3.329,6.508-3.329,6.258,0,9,2.641,9,9.787v.463H417.79c-7.947,0-29.01,1.252-29.01,16.933a17.051,17.051,0,0,0,.35,3.467,3.754,3.754,0,0,1-3.316-2.19L379.206,64.8a7.9,7.9,0,0,0-3.316-3.479v-.2c2.866-.588,11.264-5.782,11.264-18.31,0-13.128-8.761-20.95-21.163-20.95H335.566V32.727h6.258V91.36h12.515V65.391h6.32c3.542,0,5.006.488,6.42,3.229l8.761,17.521c2.115,4.418,4.355,5.219,9.436,5.219h6.608V86.354a17.008,17.008,0,0,0,13.6,6.157,15.894,15.894,0,0,0,14.743-8.761h.2a20.985,20.985,0,0,0-.1,2.153c0,2.941,1.727,5.482,6.258,5.482H437.5V80.86h-3.83a1.927,1.927,0,0,1-2.153-2.153ZM364.3,54.428H354.288V32.689h10.15c6.132,0,9.862,3.917,9.862,10.775s-3.679,10.963-10,10.963ZM419.554,69.7c0,6.07-4.606,13.128-11.113,13.128-5.006,0-7.371-3.141-7.371-6.47,0-6.946,10.012-7.834,16.37-7.834h2.115Zm66.455,9.011V59.221c0-13.216-6.257-19-17.045-19a18.773,18.773,0,0,0-17.246,10.387h-.188a14.368,14.368,0,0,0,.188-2.153V46.981c0-3.517-2.1-5.582-6.408-5.582H434.047V51.975h3.842a1.89,1.89,0,0,1,2.1,2.153V91.36h12.065V68.432a21.685,21.685,0,0,1,.951-6.658,13.441,13.441,0,0,1,13.128-10.187c6.12,0,7.659,4.117,7.659,10.187v22.9c0,4.706,1.915,6.658,6.508,6.658h11.589V80.86h-3.8a1.927,1.927,0,0,1-2.078-2.153ZM241.928,40.223c-14.655,0-24.8,10.775-24.8,26.144,0,14.2,10.012,26.144,26.282,26.144A29.4,29.4,0,0,0,263.028,85l-5.005-8.623s-5.845,5.582-13.691,5.582c-7.384,0-13.767-4.593-14.655-13.416h33.7s.288-3.129.288-4.593c-.1-13.241-7.759-23.729-21.739-23.729ZM229.951,59.91c1.352-6.258,5.757-10.087,11.977-10.087,5.006,0,9,4.117,9.186,10.087ZM517.034,81.648c-7.859,0-15.181-5.194-15.181-15.318,0-9,6.032-15.556,14.455-15.556,2.979,0,7,1.164,7,3.9v2.753h10.725V51.549c0-8.61-11.4-11.264-17.721-11.264-16.758,0-26.707,12.052-26.707,26.144,0,14.492,10.337,26.144,26.419,26.144a27.683,27.683,0,0,0,20.587-9.011l-5.069-8.61s-6.182,6.7-14.5,6.7Zm67.018-2.941V59.221c0-13.216-6.12-19-17.033-19a18.61,18.61,0,0,0-16.77,9.9h-.188s.188-1.765.188-4.218V28.384c0-4.505-2-6.558-6.508-6.558H532.152V32.4h3.83a1.89,1.89,0,0,1,2.165,2.153V91.36H550.3V68.432a23,23,0,0,1,.776-6.47c1.815-6.07,6.8-10.375,13.216-10.375,6.12,0,7.747,4.117,7.747,10.187v22.9c0,4.706,1.915,6.658,6.42,6.658h11.589V80.86h-3.83a1.94,1.94,0,0,1-2.165-2.153Zm30.362-38.484c-14.843,0-26.72,10.876-26.72,26.144s11.877,26.144,26.72,26.144,26.807-10.763,26.807-26.144S629.344,40.223,614.414,40.223Zm0,41.713c-7.859,0-14.467-6.258-14.467-15.569S606.554,50.8,614.414,50.8s14.555,6.37,14.555,15.531S622.361,81.936,614.414,81.936ZM11.426,45.467l-2.741-.588a.851.851,0,0,0-1,.651L7.021,48.7a.839.839,0,0,0,.638,1l.864.175,1.89.4h.175a.864.864,0,0,0,.826-.676l.651-3.079v-.338a.851.851,0,0,0-.638-.713Zm6.708-14.893-2.165-1.252a.839.839,0,0,0-1.151.3L13.166,32.4a.839.839,0,0,0,.3,1.151L15.631,34.8a.839.839,0,0,0,.426.113h.213a.8.8,0,0,0,.513-.388l1.652-2.778a.813.813,0,0,0,.088-.638.8.8,0,0,0-.388-.538ZM28.1,18.322l-2.027-1.927a.839.839,0,0,0-1.189,0l-2.228,2.378a.851.851,0,0,0,0,1.189l.275.263.225.213,1.489,1.4a.826.826,0,0,0,1.189,0l2.228-2.353.1-.213.063-.113a.813.813,0,0,0-.125-.839ZM57.969,0C29.16.363,20.575,12.3,20.212,12.115c-43.69,45.33-2.941,99.107-2.941,99.107,5.006,5.094,10.775,2.5,10.913,2.165,4.543-2.253,2.891-12.077,2.753-12.077a7.221,7.221,0,0,0-1.252-3.029C14.843,76.53,18.147,57.407,18.147,57.469,21.9,15.556,58.107,16.933,57.969,16.933c33.678.776,37.67,37.545,37.545,37.545,5.006,20.5-9.5,42.251-9.637,42.251a7.3,7.3,0,0,0-1.514,3.992c-.964,11.7,5.231,12.39,5.369,12.39,3.755,1.1,7.384-2.1,7.384-1.927,40.749-59.834-1.827-98.556-1.652-98.556C78.382-2.39,58.157.363,57.969,0ZM32.376,16.845c-2.666,1.815-9.7,7.509-16.845,20.6-.075,0-5.882,11.739-5.419,28.534.1,3.642.1,7.91.463,11.652,0,0-3.992-4.405-5.006-13.541a.851.851,0,0,0,.839.839h2.7a.851.851,0,0,0,.8-.576v-.375h.1V60.2a.838.838,0,0,0-.8-.576H6.445a.839.839,0,0,0-.839.839v3.617c-.726-6.8.2-16.169,5.657-28.284,0,0,8.272-17.746,18.184-23.328a1.252,1.252,0,0,1,1.652.375l1.589,2.178a1.252,1.252,0,0,1-.313,1.827Zm75.979,47.219V60.448a.851.851,0,0,0-.851-.839h-2.653a.838.838,0,0,0-.8.576V64.34a.838.838,0,0,0,.8.576H107.5a.864.864,0,0,0,.851-.839c-.989,9.136-5.006,13.541-5.006,13.541.363-3.755.363-8.01.463-11.652.451-16.8-5.344-28.534-5.419-28.534-7.146-13.141-14.18-18.773-16.858-20.6a1.252,1.252,0,0,1-.275-1.815c.5-.688,1.139-1.552,1.6-2.2a1.252,1.252,0,0,1,1.652-.375C94.426,18.047,102.7,35.793,102.7,35.793c5.444,12.115,6.383,21.488,5.657,28.272Zm-6.483-17.521.651,3.079a.864.864,0,0,0,.363.538.876.876,0,0,0,.463.138h.175l1.89-.4.851-.175a.851.851,0,0,0,.651-1l-.663-3.166a.864.864,0,0,0-1-.651l-2.741.588a.839.839,0,0,0-.663.713v.363ZM97.179,34.5a.8.8,0,0,0,.513.388h.213a.864.864,0,0,0,.426-.113l2.165-1.252a.839.839,0,0,0,.288-1.151L99.132,29.6a.838.838,0,0,0-1.151-.3l-2.165,1.252a.889.889,0,0,0-.388.513.864.864,0,0,0,.1.638ZM87.893,16.395l-2.04,1.927a.839.839,0,0,0-.225.851v.113l.113.213,2.215,2.353a.839.839,0,0,0,.613.263.788.788,0,0,0,.576-.238l1.489-1.4.225-.213L91.134,20a.851.851,0,0,0,.225-1.226l-2.228-2.34a.839.839,0,0,0-1.239-.038Z" transform="translate(-0.001)" fill="#fff"/></g></svg>