<svg xmlns="http://www.w3.org/2000/svg" xmlns:xlink="http://www.w3.org/1999/xlink" width="641.219" height="210.004" viewBox="0 0 641.219 210.004"><defs><clipPath id="a"><rect width="641.219" height="210.004" fill="none"/></clipPath></defs><g clip-path="url(#a)"><path d="M-1477.217,1520.109a17.376,17.376,0,0,1-1.933-9.164,43.283,43.283,0,0,1,1.933-12.081,102.054,102.054,0,0,1,4.969-13.151q2.99-6.426,6.546-12.675c2.38-4.165,4.7-7.855,6.9-11.068a71.26,71.26,0,0,1,5.951-7.735c1.725-2.023,2.886-2.975,3.541-2.975a6.383,6.383,0,0,1,2.112.654,24.408,24.408,0,0,1,2.975,1.517,15.777,15.777,0,0,1,2.707,1.964,2.765,2.765,0,0,1,1.191,1.875,7.232,7.232,0,0,1-1.726,2.975q-1.7,2.232-4.463,5.712c-1.844,2.321-3.867,5-6.129,8.033s-4.463,6.277-6.665,9.729a32.348,32.348,0,0,0,7.706-1.994,72.126,72.126,0,0,0,9.135-4.195,86.271,86.271,0,0,0,9.223-5.773,59.2,59.2,0,0,0,8.093-6.872,38.669,38.669,0,0,0,5.8-7.736,15.745,15.745,0,0,0,2.2-7.765,4.376,4.376,0,0,0-1.071-2.975,7.767,7.767,0,0,0-2.767-2.023,16.436,16.436,0,0,0-3.778-1.13,27.127,27.127,0,0,0-4.076-.328,60.136,60.136,0,0,0-20.5,3.422,67.985,67.985,0,0,0-16.632,8.42,46.791,46.791,0,0,0-11.157,10.622,17.647,17.647,0,0,0-4.047,9.968,16.831,16.831,0,0,0,0,2.172,8.234,8.234,0,0,0,.328,1.7l.536,1.547a11.9,11.9,0,0,1-3.9-2.023,12.545,12.545,0,0,1-2.588-3.183,10.444,10.444,0,0,1-1.16-5.3,21.127,21.127,0,0,1,4.641-12.378,48.637,48.637,0,0,1,12.5-11.6,73.077,73.077,0,0,1,18.06-8.628,67.747,67.747,0,0,1,21.273-3.362,26.1,26.1,0,0,1,10.147,1.785,22.273,22.273,0,0,1,6.932,4.344,17.6,17.6,0,0,1,4.017,5.445,12.284,12.284,0,0,1,1.28,5.058,22.442,22.442,0,0,1-2.053,9.134,44.011,44.011,0,0,1-5.534,9.134,66.249,66.249,0,0,1-7.8,8.51,67.132,67.132,0,0,1-9.193,7.022,54.452,54.452,0,0,1-9.491,4.761,24.579,24.579,0,0,1-8.628,1.785,12.548,12.548,0,0,1-5.594-1.249,15.481,15.481,0,0,1-3.957-2.648,106.522,106.522,0,0,0-7.587,15.2,40.641,40.641,0,0,0-3.244,15.115,4.319,4.319,0,0,0,.3,1.964,1.012,1.012,0,0,0,.684.595,3.378,3.378,0,0,0,.774,0h.476a1.516,1.516,0,0,1,.178,1.7c-.267.744-1.19,1.131-2.767,1.131A5.6,5.6,0,0,1-1477.217,1520.109Zm244.066-14.192a12.115,12.115,0,0,1-2.618-8v-1.191l-1.786,1.7c-1.606,1.7-3.3,3.1-5.088,4.672q-2.618,2.38-5,4.195a7.078,7.078,0,0,1-3.541,1.815,5.419,5.419,0,0,1-1.219-.179,2.968,2.968,0,0,1-1.547-1.071,8.092,8.092,0,0,1-1.369-2.707,17.835,17.835,0,0,1-.565-5.117,26.711,26.711,0,0,1,.238-3.392l-1.964,1.785c-1.7,1.7-3.481,3.1-5.355,4.672q-2.856,2.38-5.356,4.195a7.884,7.884,0,0,1-3.719,1.815,1.763,1.763,0,0,1-1.072-.417,4.892,4.892,0,0,1-1.19-1.4,10.573,10.573,0,0,1-.982-2.767,19.079,19.079,0,0,1-.417-4.493,20,20,0,0,1,.893-5.178,62.7,62.7,0,0,1,2.172-6.546c.863-2.261,1.756-4.432,2.649-6.605s1.7-3.987,2.41-5.5l-1.161.239-2.975.356a90.785,90.785,0,0,1-7.617,9.343c-2.41,2.648-5.117,5.385-8.093,8.182a3.5,3.5,0,0,1-.476.476c-.654.715-1.875,1.845-3.63,3.422s-3.541,3.154-5.445,4.731q-2.827,2.38-5.356,4.195a7.9,7.9,0,0,1-3.541,1.844,2.056,2.056,0,0,1-1.13-.416,4.169,4.169,0,0,1-1.219-1.4,10.438,10.438,0,0,1-1.012-2.767,20.8,20.8,0,0,1-.417-4.493,27.939,27.939,0,0,1,.714-6.129c-1.19,1.726-2.47,3.362-3.838,5.3a52.577,52.577,0,0,1-4.046,4.909,30.25,30.25,0,0,1-3.9,3.6,6.109,6.109,0,0,1-3.422,1.4,8.272,8.272,0,0,1-6.724-3.184,12.257,12.257,0,0,1-2.589-8,23.8,23.8,0,0,1,2.351-9.729,39.289,39.289,0,0,1,6.249-9.73,35.972,35.972,0,0,1,8.925-7.5,20.825,20.825,0,0,1,10.622-2.975,4.824,4.824,0,0,1,4.047,1.279,11.347,11.347,0,0,1,2.053,3.124,25.991,25.991,0,0,1,2.648-3.361c.833-.8,1.488-1.22,1.964-1.22a10.155,10.155,0,0,1,2.975.476,10.688,10.688,0,0,1,2.707,1.22,9.147,9.147,0,0,1,1.934,1.725,2.98,2.98,0,0,1,.774,1.756,8.685,8.685,0,0,1-1.7,3.183c-1.1,1.606-2.5,3.57-4.076,5.951s-3.154,4.939-4.73,7.735a39.546,39.546,0,0,0-3.541,8.3l2.677-2.112,4.046-3.184,3.957-3.124,2.41-1.934c.267-.267.536-.476.743-.654.8-.863,1.22-1.28,2.38-2.588s2.231-2.678,3.243-4.076l2.975-4.136a8.924,8.924,0,0,1-3.778-1.933,5.118,5.118,0,0,1-1.547-4.077,12.182,12.182,0,0,1,.832-4.432,12.586,12.586,0,0,1,6.13-6.755,10.62,10.62,0,0,1,4.819-1.071c2.767,0,4.493,1.041,5.207,2.975a11.539,11.539,0,0,1-1.071,8.063l3.3-.863a13.231,13.231,0,0,1,2.975-.417,9.887,9.887,0,0,1,2.975.476,9.136,9.136,0,0,1,2.707,1.28,9.645,9.645,0,0,1,1.964,1.785,2.982,2.982,0,0,1,.774,1.756,9.828,9.828,0,0,1-1.726,2.975l-4.076,5.951c-1.547,2.38-3.124,4.938-4.7,7.735a39.079,39.079,0,0,0-3.541,8.182l2.648-2.053c1.309-.982,2.648-2.053,4.076-3.183l3.957-2.975c1.219-.952,2.023-1.607,2.41-1.994l.178-.178a72.053,72.053,0,0,1,3.6-8.45,57.426,57.426,0,0,1,4.88-8.063c1.607-2.172,2.857-3.244,3.719-3.244a10.265,10.265,0,0,1,5.475,1.458c1.606.982,2.44,2.083,2.44,3.244a9.231,9.231,0,0,1-1.666,3.243c-1.1,1.7-2.351,3.72-3.839,6.129s-2.946,4.939-4.463,7.915a51.252,51.252,0,0,0-3.6,8.3l2.768-2.053,4.076-3.184,3.867-2.975c1.191-.952,1.964-1.606,2.38-1.993l.565-.536a39.352,39.352,0,0,1,5.951-8.926,35.486,35.486,0,0,1,8.926-7.5,20.525,20.525,0,0,1,10.622-2.975,4.756,4.756,0,0,1,3.689,1.458,10.829,10.829,0,0,1,2.083,3.124,23.744,23.744,0,0,1,2.648-3.362c.833-.8,1.488-1.22,1.934-1.22a9.819,9.819,0,0,1,2.974.476,10.462,10.462,0,0,1,2.738,1.219,9.2,9.2,0,0,1,1.934,1.725,2.977,2.977,0,0,1,.773,1.756,8.482,8.482,0,0,1-1.725,3.183c-1.071,1.607-2.47,3.571-4.046,5.951s-3.155,4.939-4.731,7.736a39.545,39.545,0,0,0-3.541,8.3l2.649-2.112,4.076-3.183,3.957-3.125,2.409-1.933c.952-.952,1.667-1.339,2.173-1.131.536.209.773.715.893,1.845a8.181,8.181,0,0,1-.833,2.975,9.257,9.257,0,0,1-2.588,3.392c-.685.714-1.934,1.844-3.66,3.421s-3.541,3.154-5.414,4.731-3.67,2.985-5.356,4.195a7.921,7.921,0,0,1-3.6,1.815,2.054,2.054,0,0,1-1.13-.417,4.164,4.164,0,0,1-1.22-1.4,9.491,9.491,0,0,1-1.012-2.767,20.866,20.866,0,0,1-.417-4.493,27.98,27.98,0,0,1,.715-6.129c-1.191,1.725-2.47,3.362-3.839,5.3a48.207,48.207,0,0,1-4.076,4.91,28.3,28.3,0,0,1-3.9,3.6,5.949,5.949,0,0,1-3.392,1.4l-.2,0A8.273,8.273,0,0,1-1233.15,1505.917Zm28.176-31.271a10.083,10.083,0,0,0-5.325,1.7,31.1,31.1,0,0,0-5.237,4.314,45.939,45.939,0,0,0-8.063,11.187,14.125,14.125,0,0,0-1.547,4.315c-.149,1.13.476,1.725.952,1.725s1.279-.506,2.47-1.666,2.529-2.5,4.017-4.136,3.124-3.422,4.641-5.356,3.124-3.719,4.493-5.415,2.5-3.124,3.362-4.254l1.4-1.815a1.513,1.513,0,0,0,.356-.595,6.117,6.117,0,0,0-.759-.047A6.117,6.117,0,0,0-1204.974,1474.646Zm-97.65,0a9.915,9.915,0,0,0-5.3,1.7,30.173,30.173,0,0,0-5.266,4.314,48.175,48.175,0,0,0-8.063,11.187,15.942,15.942,0,0,0-1.547,4.315c-.149,1.13.476,1.725.952,1.725a4.359,4.359,0,0,0,2.469-1.666c1.041-1.16,2.529-2.5,4.017-4.136s3.184-3.422,4.672-5.356,3.094-3.719,4.463-5.415,2.5-3.124,3.361-4.254,1.428-1.815,1.428-1.815l.357-.595a6.638,6.638,0,0,0-.774-.045A6.638,6.638,0,0,0-1302.624,1474.646Zm26.659-9.253a2.974,2.974,0,0,0-1.012,1.7,2.47,2.47,0,0,0,.417,1.845,2.976,2.976,0,0,0,2.231,1.1,11.9,11.9,0,0,0,1.369-3.9c.119-1.012-.268-1.517-1.13-1.517h-.052A2.529,2.529,0,0,0-1275.965,1465.393Zm-93.515,41.744a14.014,14.014,0,0,1-.715-4.791,4.671,4.671,0,0,1,1.428-2.707,33.536,33.536,0,0,1,3.72-3.659c1.517-1.339,3.421-2.886,5.3-4.315s3.9-3.005,5.951-4.4q7.29-5.028,16.632-10.979a46.737,46.737,0,0,0-7.557,1.191,77.193,77.193,0,0,0-7.646,2.291,54.758,54.758,0,0,0-8.748,3.957c-.773.476-1.458.268-1.994-.654a7.659,7.659,0,0,1-1.012-3.481,12.683,12.683,0,0,1,.476-4.4,5.446,5.446,0,0,1,2.41-3.361,12.714,12.714,0,0,1,3.779-1.072l6.724-1.19c2.44-.387,4.73-.714,6.9-.982a37.671,37.671,0,0,1,4.314-.417,8.376,8.376,0,0,1,2.47.417,9.447,9.447,0,0,1,2.768,1.339,7.286,7.286,0,0,1,2.231,2.707,9.7,9.7,0,0,1,.893,4.374,11.842,11.842,0,0,0,.833,1.428,9.437,9.437,0,0,1,.654,1.338,4.239,4.239,0,0,1,.267,1.369,77,77,0,0,0-8.479,3.9,84.291,84.291,0,0,0-8.509,5.206,67.931,67.931,0,0,0-9.789,8.242,30.73,30.73,0,0,1,4.285-.744,52.41,52.41,0,0,1,6.188-.3,5.952,5.952,0,0,1,4.493,1.815,5.478,5.478,0,0,1,1.786,3.839,4.054,4.054,0,0,1-.655,1.993,9.652,9.652,0,0,1-1.547,1.9,4.772,4.772,0,0,1-1.755,1.1,1.222,1.222,0,0,1-1.369-.179q-.536-.445,0-1.16l1.071-1.428a3.8,3.8,0,0,0,.654-1.219c.059-.357-.238-.536-.952-.536a25.5,25.5,0,0,0-4.82.893c-2.321.565-4.7,1.19-7.231,1.9s-4.909,1.339-7.2,1.875a23.6,23.6,0,0,1-4.612.833C-1368.468,1509.071-1369,1508.415-1369.48,1507.136Zm-36.984,0a14.09,14.09,0,0,1-.625-4.791,4.585,4.585,0,0,1,1.4-2.707,36.231,36.231,0,0,1,3.719-3.659c1.458-1.339,3.511-2.886,5.415-4.315s3.927-3.005,5.951-4.4q7.29-5.028,16.632-10.979a46.366,46.366,0,0,0-7.528,1.191,77.744,77.744,0,0,0-7.676,2.291,54.475,54.475,0,0,0-8.807,3.957c-.8.476-1.458.268-2.023-.654a8.032,8.032,0,0,1-.982-3.481,11.909,11.909,0,0,1,.476-4.4,5.237,5.237,0,0,1,2.5-3.361,12.707,12.707,0,0,1,3.779-1.072l6.694-1.19c2.44-.387,4.76-.714,6.9-.982a37.676,37.676,0,0,1,4.314-.417,8.092,8.092,0,0,1,2.47.417,9.146,9.146,0,0,1,2.767,1.339,7.068,7.068,0,0,1,2.261,2.707,10.142,10.142,0,0,1,.863,4.374c.238.476.536.952.833,1.428a9.451,9.451,0,0,1,.654,1.338,3.7,3.7,0,0,1,.3,1.369,74.388,74.388,0,0,0-8.479,3.9,84.249,84.249,0,0,0-8.718,5.385,69.5,69.5,0,0,0-9.788,8.241,31.387,31.387,0,0,1,4.314-.744,52.254,52.254,0,0,1,6.189-.3,5.949,5.949,0,0,1,4.641,1.636,5.564,5.564,0,0,1,1.755,3.839,3.747,3.747,0,0,1-.654,1.993,8.544,8.544,0,0,1-1.517,1.9,4.851,4.851,0,0,1-1.786,1.1,1.159,1.159,0,0,1-1.338-.179c-.387-.3-.357-.684,0-1.16l1.041-1.428a3.8,3.8,0,0,0,.654-1.219c.089-.357-.238-.536-.952-.536a25.715,25.715,0,0,0-4.939.893c-2.32.565-4.76,1.19-7.259,1.9s-4.91,1.339-7.2,1.875a23.452,23.452,0,0,1-4.583.833C-1405.422,1509.071-1405.987,1508.415-1406.463,1507.136Zm-17.2,1.577a2.974,2.974,0,0,1-1.547-1.071,7.611,7.611,0,0,1-1.339-2.708,16.589,16.589,0,0,1-.595-5.117,32.718,32.718,0,0,1,1.815-10.265,72.289,72.289,0,0,1,4.314-10.384,57.426,57.426,0,0,1,4.88-8.063c1.606-2.172,2.857-3.243,3.719-3.243a10.263,10.263,0,0,1,5.475,1.368c1.636.982,2.44,2.083,2.44,3.244a9.232,9.232,0,0,1-1.666,3.243c-1.1,1.7-2.351,3.72-3.839,6.129s-2.946,4.939-4.463,7.915a51.237,51.237,0,0,0-3.6,8.3q.8-.581,2.767-2.053c1.309-.982,2.648-2.053,4.076-3.184l3.9-2.975c1.161-.951,1.964-1.607,2.351-1.993.952-.952,1.666-1.339,2.172-1.131s.774.715.774,1.577a8.509,8.509,0,0,1-.774,3.155,9.9,9.9,0,0,1-2.529,3.391c-.714.715-1.874,1.667-3.481,3.362s-3.272,3.094-5.058,4.671-3.451,2.975-5.028,4.2a6.962,6.962,0,0,1-3.541,1.814A5.643,5.643,0,0,1-1423.661,1508.713Zm19.756-44.69a8.182,8.182,0,0,1-1.994-1.666,5.005,5.005,0,0,1-1.13-2.321,7.2,7.2,0,0,1,.595-3.481,22.452,22.452,0,0,1,2.2-4.284,23.777,23.777,0,0,1,2.975-3.72,5.476,5.476,0,0,1,2.767-1.844,8.924,8.924,0,0,1,5.951.892,4.494,4.494,0,0,1,2.172,2.975q.269,1.667-.178,1.964l-1.636,1.161a26.157,26.157,0,0,0-3.481,3.3,49.528,49.528,0,0,0-5.654,8.331A20.954,20.954,0,0,1-1403.9,1464.024Zm172.2-4a8.726,8.726,0,0,1-1.815-1.667,5,5,0,0,1-1.13-2.32,7.2,7.2,0,0,1,.595-3.481,25.584,25.584,0,0,1,5.028-8,5.473,5.473,0,0,1,2.767-1.845,8.93,8.93,0,0,1,5.951.893,4.585,4.585,0,0,1,2.172,2.975q.237,1.666-.178,1.964l-1.637,1.16a26.316,26.316,0,0,0-3.481,3.3,49.553,49.553,0,0,0-5.653,8.33A23.918,23.918,0,0,1-1231.7,1460.024Z" transform="translate(1658.379 -1309.08)" fill="#fff"/><path d="M-1023.883,1504.074a26.779,26.779,0,0,1-16.09-25.181,25.851,25.851,0,0,1,7.788-18.811,25.855,25.855,0,0,1,18.99-7.342,26.779,26.779,0,0,1,24.794,16.68,26.78,26.78,0,0,1-6.091,29.255,26.77,26.77,0,0,1-18.717,7.622A26.745,26.745,0,0,1-1023.883,1504.074Zm3.131-38.785a14.547,14.547,0,0,0-6.9,13.544,14.7,14.7,0,0,0,3.906,10.87,14.7,14.7,0,0,0,10.554,4.691v.059a14.879,14.879,0,0,0,10.578-4.734,14.879,14.879,0,0,0,3.972-10.886,14.549,14.549,0,0,0-6.9-13.544,14.537,14.537,0,0,0-7.6-2.144A14.534,14.534,0,0,0-1020.752,1465.289Zm-382.306,32.388a25.318,25.318,0,0,1-7.433-18.785c0-15.383,10.147-26.153,24.785-26.153,13.955,0,21.66,10.354,21.66,23.624,0,1.458-.3,4.582-.3,4.582h-33.71a14.163,14.163,0,0,0,14.668,13.508,21.961,21.961,0,0,0,13.687-5.564l5.088,8.6a29.366,29.366,0,0,1-19.637,7.557c-.314.012-.626.017-.938.017A25.319,25.319,0,0,1-1403.059,1497.677Zm5.45-25.241h21.1a9.576,9.576,0,0,0-2.487-6.967,9.58,9.58,0,0,0-6.707-3.119h-.141A11.9,11.9,0,0,0-1397.608,1472.436Zm54.806,32.61c-10.444,0-16.84-5.385-16.84-19.013v-19.4a1.9,1.9,0,0,0-.532-1.589,1.9,1.9,0,0,0-1.581-.553h-3.838V1453.93h11.6c4.493,0,6.4,2.053,6.4,6.545V1483.5c0,6.07,1.636,10.176,7.587,10.176,8.807,0,13.686-7.915,13.686-16.841v-22.91h12.169v37.281a1.934,1.934,0,0,0,.55,1.622,1.934,1.934,0,0,0,1.622.55h3.839v10.473h-11.187c-4.225,0-6.427-2.053-6.427-5.594v-3.6h-.178a18.418,18.418,0,0,1-16.573,10.386Zm212.077-7.4a25.382,25.382,0,0,1-7.523-18.844,25.44,25.44,0,0,1,7.654-18.95,25.441,25.441,0,0,1,19.125-7.2c6.456,0,17.852,2.648,17.852,11.276v5.951h-10.741v-2.737c0-2.738-4.017-3.927-6.992-3.927-8.51,0-14.46,6.664-14.46,15.591a14.606,14.606,0,0,0,4.219,11.047,14.608,14.608,0,0,0,11.014,4.3,21.9,21.9,0,0,0,14.282-6.754l5.088,8.628a27.731,27.731,0,0,1-20.589,8.926q-.543.023-1.085.023A25.38,25.38,0,0,1-1130.726,1497.648Zm-91.4,7.309a17.051,17.051,0,0,1-13.6-6.159v5.177h-6.635c-5.058,0-7.259-.774-9.462-5.177l-8.717-17.584c-1.428-2.767-2.886-3.244-6.427-3.244h-6.308v25.886h-12.556v-58.614h-6.218v-10.86h30.468c12.436,0,21.155,7.707,21.155,20.828,0,12.526-8.331,17.7-11.307,18.3v.209a7.912,7.912,0,0,1,3.362,3.511l6.605,13.418a3.749,3.749,0,0,0,3.3,2.2,18.579,18.579,0,0,1-.476-3.392c0-15.65,21.1-16.93,29.039-16.93h1.517v-.386c0-7.141-2.708-9.789-8.926-9.789-2.2,0-6.516.565-6.516,3.333v2.618h-11.307v-5.267c0-9.312,12.765-10.294,17.852-10.294,16.275,0,21.065,8.717,21.065,19.876v18.6a1.933,1.933,0,0,0,.531,1.6,1.936,1.936,0,0,0,1.581.576h3.839v10.294h-10.533c-4.522,0-6.249-2.5-6.249-5.475a18.207,18.207,0,0,1,0-2.172h-.208a15.859,15.859,0,0,1-14.266,8.938Q-1221.817,1504.968-1222.124,1504.957Zm-4.493-16.067a6.605,6.605,0,0,0,2.255,4.867,6.6,6.6,0,0,0,5.124,1.589c6.516,0,11.128-7.171,11.128-13.121v-1.191h-2.112C-1216.56,1481.035-1226.616,1481.927-1226.616,1488.89Zm-46.653-21.958h9.968c6.308,0,10.057-4.046,10.057-10.92s-3.749-10.77-9.878-10.77h-10.147Zm224.222,36.924c-4.493,0-6.427-1.964-6.427-6.665v-22.91c0-6.07-1.607-10.175-7.736-10.175a13.776,13.776,0,0,0-13.21,10.383,22.216,22.216,0,0,0-.773,6.457v22.91h-12.17v-56.8a1.9,1.9,0,0,0-.531-1.589,1.9,1.9,0,0,0-1.581-.554h-3.808v-10.592h11.574c4.493,0,6.516,2.083,6.516,6.576v17.524a40.37,40.37,0,0,1-.209,4.225h.209a18.564,18.564,0,0,1,16.6-9.908c10.919,0,17.049,5.773,17.049,19.013v19.459h0a1.935,1.935,0,0,0,.514,1.571,1.931,1.931,0,0,0,1.54.6h4.046v10.473Zm-98.1,0c-4.582,0-6.516-1.964-6.516-6.665v-22.91c0-6.07-1.517-10.175-7.646-10.175a13.418,13.418,0,0,0-13.121,10.175,22.025,22.025,0,0,0-.952,6.665v22.91h-12.2V1466.6a1.873,1.873,0,0,0-.509-1.589,1.875,1.875,0,0,0-1.573-.554h-3.839V1453.9h11.187c4.315,0,6.427,2.054,6.427,5.564v1.488a14.851,14.851,0,0,1-.178,2.143h.178a18.746,18.746,0,0,1,17.228-10.354c10.83,0,17.049,5.773,17.049,19.013v19.459a1.932,1.932,0,0,0,.566,1.65,1.937,1.937,0,0,0,1.665.522h3.839v10.473Zm-271.736,0c-4.522,0-6.04-1.964-6.427-6.665l-2.5-30.944a99.558,99.558,0,0,1,0-10.77h-.208a111.436,111.436,0,0,1-3.72,10.77l-11.306,25.677h-10.147l-11.306-25.677a112.986,112.986,0,0,1-3.749-10.86h-.179a101.164,101.164,0,0,1,0,10.86l-2.2,30.944c-.387,4.7-2.023,6.665-6.516,6.665h-10.831v-10.831h2.975a1.957,1.957,0,0,0,2.112-2.172l4.4-56.532h13.032l13.954,33.086c1.636,4.017,3.362,9.284,3.362,9.284h.208s1.7-5.267,3.333-9.284l13.983-33.115h13.032l4.4,56.532c.089,1.369.774,2.172,2.112,2.172h2.975v10.86Z" transform="translate(1627.643 -1412.448)" fill="#fff"/><path d="M-1470.73,1545.575s-40.7-53.764,2.975-99.108c.357.178,8.956-11.753,37.786-12.11a53.947,53.947,0,0,1,37.46,12.676c-.238,0,42.4,38.709,1.666,98.454a9.845,9.845,0,0,1-7.378,1.933c-.149,0-6.427-.595-5.386-12.288a7.293,7.293,0,0,1,1.517-3.987c.148,0,14.609-21.75,9.64-42.279.149,0-3.868-36.656-37.519-37.578.12,0-36.12-1.369-39.839,40.554,0-.089-3.272,19.042,11.6,40.7a7.592,7.592,0,0,1,1.161,3.124c.208,0,1.785,9.819-2.767,12.08a8.9,8.9,0,0,1-4.095,1A8.923,8.923,0,0,1-1470.73,1545.575Zm-6.665-33.592a102.407,102.407,0,0,1-.446-11.633,63.709,63.709,0,0,1,5.415-28.563c7.141-13.121,14.162-18.774,16.841-20.589a1.282,1.282,0,0,0,.55-.838,1.281,1.281,0,0,0-.223-.977l-1.607-2.172a1.22,1.22,0,0,0-1.636-.387c-9.938,5.475-18.21,23.327-18.21,23.327-5.452,12.146-6.381,21.537-5.653,28.315v-3.531a.863.863,0,0,1,.863-.863h2.737a.833.833,0,0,1,.8.595v.238h-.089v3.928a.833.833,0,0,1-.8.565h-2.648a.863.863,0,0,1-.828-.616C-1481.29,1507.695-1477.394,1511.984-1477.394,1511.984Zm72.3-64.773-1.607,2.172a1.281,1.281,0,0,0-.223.977,1.282,1.282,0,0,0,.55.838c2.678,1.815,9.7,7.468,16.841,20.589a63.7,63.7,0,0,1,5.415,28.474c-.089,3.63-.089,7.884-.446,11.633,0,0,3.835-4.221,4.908-12.992a.863.863,0,0,1-.714.377h-2.648a.864.864,0,0,1-.8-.566v-4.165a.863.863,0,0,1,.8-.595h2.648a.863.863,0,0,1,.863.863v2.616c.545-6.7-.539-15.779-5.742-27.371,0,0-8.272-17.645-18.21-23.238a1.245,1.245,0,0,0-.6-.157A1.249,1.249,0,0,0-1405.094,1447.211Zm-72.271,37.429h-.178l-1.9-.416-.833-.179a.837.837,0,0,1-.531-.355.835.835,0,0,1-.123-.627l.654-3.183a.834.834,0,0,1,.375-.525.827.827,0,0,1,.636-.1l2.738.565a.833.833,0,0,1,.625.952v.356l-.654,2.975a.742.742,0,0,1-.357.536.768.768,0,0,1-.223.033A.768.768,0,0,1-1477.364,1484.64Zm92.295-.238a.832.832,0,0,1-.357-.536l-.654-2.975v-.357a.862.862,0,0,1,.654-.714l2.738-.565a.8.8,0,0,1,.644.088.8.8,0,0,1,.368.536l.654,3.183a.806.806,0,0,1-.1.625.8.8,0,0,1-.523.356l-.863.179-.03-.239-1.9.417h-.178a.839.839,0,0,1-.224.03A.832.832,0,0,1-1385.069,1484.4Zm-5.058-15.144h-.209a.893.893,0,0,1-.536-.387l-1.636-2.8a.77.77,0,0,1,0-.625.686.686,0,0,1,.387-.506l2.142-1.309a.862.862,0,0,1,1.16.3l1.578,2.886a.833.833,0,0,1-.3,1.13l-2.172,1.31a1,1,0,0,1-.209.022A.986.986,0,0,1-1390.127,1469.258Zm-82.209-.089-2.142-1.31a.8.8,0,0,1-.392-.5.8.8,0,0,1,.094-.629l1.637-2.8a.862.862,0,0,1,1.16-.3l2.172,1.309a.837.837,0,0,1,.3.417.888.888,0,0,1,0,.625l-1.666,2.8a.927.927,0,0,1-.507.387h-.208a1.279,1.279,0,0,1-.223.02A1.282,1.282,0,0,1-1472.336,1469.169Zm72.836-12.765a.863.863,0,0,1-.625-.267l-2.2-2.351v-.208a.832.832,0,0,1,.238-.863l2.023-1.934a.831.831,0,0,1,.595-.25.831.831,0,0,1,.595.25l2.173,2.41a.835.835,0,0,1,.25.595.835.835,0,0,1-.25.595l-.268.268-.238.208-1.488,1.4a.8.8,0,0,1-.527.2A.8.8,0,0,1-1399.5,1456.4Zm-63.821-.238-1.488-1.4-.208-.208-.3-.268a.863.863,0,0,1,0-1.19l2.232-2.351a.831.831,0,0,1,.595-.25.831.831,0,0,1,.595.25l2.053,1.934a.894.894,0,0,1-.059.893v.208l-2.231,2.351a.863.863,0,0,1-.625.267A.8.8,0,0,1-1463.321,1456.167Z" transform="translate(1487.969 -1434.292)" fill="#fff"/></g></svg>