<svg fill="none" viewBox="0 0 512.36 91.36" xmlns="http://www.w3.org/2000/svg"><path fill="#ef2840" d="M171.35 62.58l-3.52-45.14h-10.4l-11.18 26.44c-1.3 3.21-2.67 7.43-2.67 7.43h-.16s-1.37-4.22-2.67-7.43l-11.18-26.44h-10.4l-3.52 45.14c-.08 1.09-.61 1.72-1.69 1.72h-2.37V73h8.65c3.6 0 4.9-1.56 5.2-5.32l1.76-24.72a81.83 81.83 0 0 0 .08-8.68h.15a90.88 90.88 0 0 0 3 8.68l9 20.5h8.12l9-20.5c1.38-3.13 3-8.61 3-8.61h.15a80.45 80.45 0 0 0 .08 8.61l1.83 24.72c.31 3.76 1.53 5.32 5.13 5.32h8.65v-8.7H173c-1 0-1.57-.63-1.65-1.72zm79.11.31V33.08h-9.71v18.31c0 7.12-3.91 13.46-10.95 13.46-4.82 0-6-3.29-6-8.14V38.32c0-3.59-1.53-5.24-5.13-5.24h-9.26v8.45h3.07a1.51 1.51 0 0 1 1.68 1.72v15.49c0 10.88 5.13 15.18 13.47 15.18a14.69 14.69 0 0 0 13.46-8.29h.15s-.07.86-.07 1.8v1.09c0 2.82 1.76 4.46 5.12 4.46h9v-8.37h-3.06a1.55 1.55 0 0 1-1.77-1.72zm94.34 0V48c0-8.92-3.83-15.89-16.83-15.89-4.06 0-14.31.79-14.31 8.22v4.22h9v-2.08c0-2.19 3.44-2.66 5.2-2.66 5 0 7.19 2.11 7.19 7.82V48h-1.22c-6.35 0-23.18 1-23.18 13.53a13.62 13.62 0 0 0 .28 2.77 3 3 0 0 1-2.65-1.75L303 51.78a6.31 6.31 0 0 0-2.65-2.78v-.16c2.29-.47 9-4.62 9-14.63 0-10.49-7-16.74-16.91-16.74h-24.31v8.68h5V73h10V52.25h5.05c2.83 0 4 .39 5.13 2.58l7 14c1.69 3.53 3.48 4.17 7.54 4.17h5.28v-4A13.59 13.59 0 0 0 324 73.92a12.7 12.7 0 0 0 11.78-7h.16a16.76 16.76 0 0 0-.08 1.72c0 2.35 1.38 4.38 5 4.38h8.72v-8.41h-3.06a1.54 1.54 0 0 1-1.72-1.72zm-53.71-19.4h-8V26.12h8.11c4.9 0 7.88 3.13 7.88 8.61s-2.94 8.76-7.99 8.76zm44.15 12.2c0 4.85-3.68 10.49-8.88 10.49-4 0-5.89-2.51-5.89-5.17 0-5.55 8-6.26 13.08-6.26h1.69zm53.1 7.2V47.32c0-10.56-5-15.18-13.62-15.18a15 15 0 0 0-13.78 8.3h-.15a11.48 11.48 0 0 0 .15-1.72v-1.18c0-2.81-1.68-4.46-5.12-4.46h-9v8.45h3.07a1.51 1.51 0 0 1 1.68 1.72V73h9.64V54.68a17.33 17.33 0 0 1 .76-5.32 10.74 10.74 0 0 1 10.49-8.14c4.89 0 6.12 3.29 6.12 8.14v18.3c0 3.76 1.53 5.32 5.2 5.32h9.26v-8.37H390a1.54 1.54 0 0 1-1.66-1.72zM193.31 32.14c-11.71 0-19.82 8.61-19.82 20.89 0 11.35 8 20.89 21 20.89a23.49 23.49 0 0 0 15.68-6l-4-6.89s-4.67 4.46-10.94 4.46c-5.9 0-11-3.67-11.71-10.72h26.93s.23-2.5.23-3.67c-.08-10.58-6.2-18.96-17.37-18.96zm-9.57 15.73c1.08-5 4.6-8.06 9.57-8.06 4 0 7.19 3.29 7.34 8.06zm229.39 17.37C406.85 65.24 401 61.09 401 53c0-7.19 4.82-12.43 11.55-12.43 2.38 0 5.59.93 5.59 3.12v2.2h8.57v-4.7c0-6.88-9.11-9-14.16-9-13.39 0-21.34 9.63-21.34 20.89 0 11.58 8.26 20.89 21.11 20.89a22.12 22.12 0 0 0 16.45-7.2l-4.05-6.88s-4.94 5.35-11.59 5.35zm53.55-2.35V47.32c0-10.56-4.89-15.18-13.61-15.18a14.87 14.87 0 0 0-13.4 7.91h-.15s.15-1.41.15-3.37v-14c0-3.6-1.6-5.24-5.2-5.24h-9.26v8.45h3.06a1.51 1.51 0 0 1 1.73 1.72V73h9.71V54.68a18.38 18.38 0 0 1 .62-5.17c1.45-4.85 5.43-8.29 10.56-8.29 4.89 0 6.19 3.29 6.19 8.14v18.3c0 3.76 1.53 5.32 5.13 5.32h9.26v-8.37h-3.06a1.55 1.55 0 0 1-1.73-1.72zm24.26-30.75c-11.86 0-21.35 8.69-21.35 20.89s9.49 20.89 21.35 20.89 21.42-8.6 21.42-20.89-9.49-20.89-21.42-20.89zm0 33.33c-6.28 0-11.56-5-11.56-12.44s5.28-12.44 11.56-12.44 11.63 5.09 11.63 12.41-5.28 12.47-11.63 12.47zM9.13 36.33l-2.19-.47a.68.68 0 0 0-.8.52l-.53 2.53a.67.67 0 0 0 .51.8l.69.14 1.51.32h.14a.69.69 0 0 0 .66-.54l.52-2.46v-.27a.68.68 0 0 0-.51-.57zm5.36-11.9l-1.73-1a.67.67 0 0 0-.92.24l-1.32 2.22a.67.67 0 0 0 .24.92l1.73 1a.67.67 0 0 0 .34.09H13a.64.64 0 0 0 .41-.31l1.32-2.22a.65.65 0 0 0 .07-.51.64.64 0 0 0-.31-.43zm7.96-9.79l-1.62-1.54a.67.67 0 0 0-.95 0L18.1 15a.68.68 0 0 0 0 .95l.22.21.18.17 1.19 1.12a.66.66 0 0 0 .95 0l1.78-1.88.08-.17.05-.09a.65.65 0 0 0-.1-.67zM46.32 0C23.3.29 16.44 9.83 16.15 9.68-18.76 45.9 13.8 88.87 13.8 88.87c4 4.07 8.61 2 8.72 1.73 3.63-1.8 2.31-9.65 2.2-9.65a5.77 5.77 0 0 0-1-2.42C11.86 61.15 14.5 45.87 14.5 45.92c3-33.49 31.93-32.39 31.82-32.39 26.91.62 30.1 30 30 30 4 16.38-7.59 33.76-7.7 33.76a5.83 5.83 0 0 0-1.21 3.19c-.77 9.35 4.18 9.9 4.29 9.9 3 .88 5.9-1.68 5.9-1.54 32.56-47.81-1.46-78.75-1.32-78.75C62.63-1.91 46.47.29 46.32 0zM25.87 13.46c-2.13 1.45-7.75 6-13.46 16.46-.06 0-4.7 9.38-4.33 22.8.08 2.91.08 6.32.37 9.31 0 0-3.19-3.52-4-10.82a.68.68 0 0 0 .67.67h2.16a.68.68 0 0 0 .64-.46v-.3H8V48.1a.67.67 0 0 0-.64-.46H5.15a.67.67 0 0 0-.67.67v2.89C3.9 45.77 4.64 38.28 9 28.6c0 0 6.61-14.18 14.53-18.64a1 1 0 0 1 1.32.3L26.12 12a1 1 0 0 1-.25 1.46zm60.71 37.73V48.3a.68.68 0 0 0-.68-.67h-2.12a.67.67 0 0 0-.64.46v3.32a.67.67 0 0 0 .64.46h2.12a.69.69 0 0 0 .68-.67c-.79 7.3-4 10.82-4 10.82.29-3 .29-6.4.37-9.31.36-13.42-4.27-22.8-4.33-22.8-5.71-10.5-11.33-15-13.47-16.46a1 1 0 0 1-.22-1.45c.4-.55.91-1.24 1.28-1.76a1 1 0 0 1 1.32-.3c7.92 4.48 14.53 18.66 14.53 18.66 4.35 9.68 5.1 17.17 4.52 22.59zm-5.18-14l.52 2.46a.69.69 0 0 0 .29.43.7.7 0 0 0 .37.11h.14l1.51-.32.68-.14a.68.68 0 0 0 .52-.8l-.53-2.53a.69.69 0 0 0-.8-.52l-2.19.47a.67.67 0 0 0-.53.57v.29zm-3.75-9.62a.64.64 0 0 0 .41.31h.17a.69.69 0 0 0 .34-.09l1.73-1a.67.67 0 0 0 .23-.92l-1.32-2.22a.67.67 0 0 0-.92-.24l-1.73 1a.71.71 0 0 0-.31.41.69.69 0 0 0 .08.51zM70.23 13.1l-1.63 1.54a.67.67 0 0 0-.18.68v.09l.09.17 1.77 1.88a.67.67 0 0 0 .49.21.63.63 0 0 0 .46-.19l1.19-1.12.18-.17.22-.21A.68.68 0 0 0 73 15l-1.78-1.87a.67.67 0 0 0-.99-.03z"/></svg>