<svg xmlns="http://www.w3.org/2000/svg" width="102" height="102" viewBox="0 0 102 102">
  <path id="mr-logo-icon-red-circle" d="M51,102A51.013,51.013,0,0,1,31.149,4.008a51.013,51.013,0,0,1,39.7,93.984A50.681,50.681,0,0,1,51,102ZM26.848,21.552C12.254,36.7,12.508,53.325,15.291,64.6a64.834,64.834,0,0,0,5.96,15.162,52.212,52.212,0,0,0,3.672,5.892,5.771,5.771,0,0,0,7.063,1.4c1.412-.7,1.873-2.533,2.011-3.946a13.492,13.492,0,0,0-.163-3.7c-.033-.141-.051-.162-.058-.162a4.929,4.929,0,0,0-.751-2.02C23.478,63.325,25.481,51,25.521,50.9a33.015,33.015,0,0,1,4.593-14.838A23.458,23.458,0,0,1,38.2,28.239,27.112,27.112,0,0,1,51.05,24.667c.155,0,.238,0,.241,0A22.76,22.76,0,0,1,66.93,30.9a25.894,25.894,0,0,1,4.365,5.58,32.813,32.813,0,0,1,2.616,5.649,29.292,29.292,0,0,1,1.647,6.848,26.683,26.683,0,0,1,.43,9.6,39.627,39.627,0,0,1-2.138,8.6,43.791,43.791,0,0,1-4.5,9.116.17.17,0,0,1-.031.036,4.7,4.7,0,0,0-.982,2.579c-.351,3.933.6,5.883,1.467,6.826a3.255,3.255,0,0,0,2.016,1.122A6.373,6.373,0,0,0,76.6,85.6C87.1,70.189,90.388,55.133,86.358,40.849A45.081,45.081,0,0,0,75.669,22.08a1.785,1.785,0,0,1-.152-.161A34.921,34.921,0,0,0,53,13.679c-.568,0-1.144.014-1.712.042-7.471.092-17.718,1.478-24.106,7.553-.19.18-.294.28-.33.28h-.006ZM20.613,63.93l0,0c-.1-.116-2.535-2.911-3.189-8.54a.56.56,0,0,0,.535.4h1.722a.538.538,0,0,0,.511-.365V52.883h.058v-.154a.535.535,0,0,0-.516-.384H17.957a.558.558,0,0,0-.557.557v2.291c-.587-5.446.644-11.61,3.656-18.32a58.4,58.4,0,0,1,3.479-6.216c1.954-3.038,4.979-7.043,8.3-8.873a.789.789,0,0,1,1.058.251l1.039,1.4a.829.829,0,0,1-.211,1.174c-1.737,1.177-6.275,4.832-10.894,13.317a41.437,41.437,0,0,0-3.5,18.474,66.062,66.062,0,0,0,.288,7.522ZM19.271,42.745a.538.538,0,0,0-.524.42l-.425,2.059a.537.537,0,0,0,.425.634l.538.116,1.232.271h.116a.508.508,0,0,0,.287,0,.486.486,0,0,0,.232-.346l.423-1.924v-.232a.541.541,0,0,0-.4-.616L19.4,42.761A.54.54,0,0,0,19.271,42.745Zm4.571-10.161a.557.557,0,0,0-.477.265l-1.058,1.81a.518.518,0,0,0-.061.407.529.529,0,0,0,.253.324l1.386.847a.834.834,0,0,0,.289,0h.135a.6.6,0,0,0,.328-.251l1.077-1.808a.579.579,0,0,0,0-.4.537.537,0,0,0-.192-.27l-1.4-.847A.561.561,0,0,0,23.842,32.584Zm6.413-8.422a.539.539,0,0,0-.384.161l-1.443,1.521a.553.553,0,0,0,0,.769l.192.174.134.135.963.9a.515.515,0,0,0,.365.154.55.55,0,0,0,.4-.174l1.445-1.52v-.133a.582.582,0,0,0,.039-.579l-1.329-1.251A.536.536,0,0,0,30.254,24.162Zm50.4,39.709v0c.18-1.894.218-3.948.256-5.933v-.006c.01-.551.02-1.071.033-1.582a41.423,41.423,0,0,0-3.5-18.417c-4.619-8.485-9.156-12.14-10.893-13.317a.827.827,0,0,1-.213-1.174l1.039-1.4a.81.81,0,0,1,1.059-.251c3.32,1.869,6.346,5.856,8.3,8.872a58.317,58.317,0,0,1,3.479,6.159c2.894,6.45,4.144,12.405,3.713,17.7V52.826a.56.56,0,0,0-.558-.56H81.658a.557.557,0,0,0-.519.386v2.694a.559.559,0,0,0,.519.365h1.713a.558.558,0,0,0,.461-.244c-.677,5.538-3.071,8.287-3.172,8.4ZM82.014,42.74a.512.512,0,0,0-.145.021l-1.77.365a.556.556,0,0,0-.424.461v.232l.424,1.924a.542.542,0,0,0,.23.347.533.533,0,0,0,.145.02.521.521,0,0,0,.144-.02h.116l1.232-.27.019.154.557-.116a.513.513,0,0,0,.338-.23.519.519,0,0,0,.066-.4l-.423-2.059a.523.523,0,0,0-.237-.347A.514.514,0,0,0,82.014,42.74ZM77.429,32.584a.56.56,0,0,0-.275.072l-1.385.847a.447.447,0,0,0-.251.328.505.505,0,0,0,0,.4l1.06,1.81a.564.564,0,0,0,.346.249h.134a.629.629,0,0,0,.135.014.618.618,0,0,0,.135-.014l1.4-.847a.538.538,0,0,0,.192-.731L77.9,32.849A.556.556,0,0,0,77.429,32.584Zm-6.414-8.4a.548.548,0,0,0-.384.16l-1.308,1.251a.539.539,0,0,0-.154.56v.133l1.424,1.52a.556.556,0,0,0,.4.174.512.512,0,0,0,.178.031.52.52,0,0,0,.341-.127l.963-.905.155-.134.173-.173a.541.541,0,0,0,0-.77l-1.4-1.56A.55.55,0,0,0,71.015,24.182Z" fill="#ef2840"/>
</svg>
