<svg xmlns="http://www.w3.org/2000/svg" xmlns:xlink="http://www.w3.org/1999/xlink" width="512" height="512" viewBox="0 0 512 512">
  <defs>
    <clipPath id="clip-mr-simple-icon">
      <rect width="512" height="512"/>
    </clipPath>
  </defs>
  <g id="mr-simple-icon" clip-path="url(#clip-mr-simple-icon)">
    <path id="bg-logo-2" d="M510.368,252.054c-2.677,41.673-8.737,82.966-24.851,122.891-10.914,27.043-25.88,52.422-48.28,74.654-35.752,35.481-82.63,54.971-138.34,60.575-72.425,7.287-137.855-7.2-194.937-43.984-26.85-17.3-45.006-40.367-60.491-64.728-23.218-36.317-37.577-75.87-42.3-116.525-2.607-22.217-.407-44.384,2.265-66.468,2.013-16.648,4.8-33.277,8.384-49.753,6.434-29.576,17.448-58.016,36.054-84.253C81.378,37.216,132.685,11.23,198.794,3.13c27.614-3.383,55.593-4.529,83.015-.873,102.417,13.66,175.567,57.627,212.8,136.974,12.977,27.65,17.7,56.648,17.372,86.143C511.887,234.271,510.931,243.161,510.368,252.054Z" transform="translate(0 0)" fill="#ef2840" fill-rule="evenodd"/>
    <path id="União_3" data-name="União 3" d="M48.877,314.967S-66.52,162.794,57.312,34.457C58.329,34.964,82.707,1.192,164.449.184a153.061,153.061,0,0,1,106.2,35.872c-.668,0,120.21,109.564,4.73,278.662a27.983,27.983,0,0,1-20.923,5.472c-.418,0-18.221-1.683-15.267-34.781a20.635,20.635,0,0,1,4.3-11.285c.418,0,41.414-61.558,27.331-119.667.418,0-10.97-103.743-106.37-106.358.334,0-102.407-3.873-112.953,114.786,0-.258-9.277,53.9,32.9,115.2a21.428,21.428,0,0,1,3.287,8.837c.592,0,5.064,27.793-7.842,34.189a25.324,25.324,0,0,1-30.96-6.147Zm-18.9-95.072c-1.26-10.611-1.26-22.654-1.26-32.931a180.042,180.042,0,0,1,15.351-80.839C64.319,68.987,84.225,52.987,91.817,47.849a3.623,3.623,0,0,0,.926-5.139l-4.555-6.147a3.467,3.467,0,0,0-4.639-1.1c-28.174,15.5-51.625,66.029-51.625,66.029-15.465,34.393-18.1,60.981-16.027,80.167V171.639a2.441,2.441,0,0,1,2.445-2.441H26.1a2.355,2.355,0,0,1,2.278,1.683v.675h-.251v11.119a2.364,2.364,0,0,1-2.278,1.6H18.342a2.446,2.446,0,0,1-2.349-1.76C18.931,207.752,29.981,219.895,29.981,219.895ZM234.962,36.563l-4.555,6.147a3.617,3.617,0,0,0,.934,5.139c7.592,5.139,27.5,21.138,47.746,58.276a180.032,180.032,0,0,1,15.351,80.589c-.258,10.277-.258,22.313-1.268,32.924,0,0,10.872-11.946,13.916-36.77a2.447,2.447,0,0,1-2.02,1.065h-7.508a2.444,2.444,0,0,1-2.278-1.6V170.547a2.445,2.445,0,0,1,2.278-1.69h7.508a2.447,2.447,0,0,1,2.445,2.448v7.39c1.544-18.953-1.531-44.653-16.277-77.459,0,0-23.452-49.939-51.625-65.772a3.558,3.558,0,0,0-4.646,1.1ZM30.072,142.5h-.509l-5.4-1.182-2.361-.508a2.347,2.347,0,0,1-1.86-2.774l1.86-9.012a2.355,2.355,0,0,1,2.862-1.766l7.766,1.6a2.353,2.353,0,0,1,1.769,2.691v1.016l-1.852,8.42a2.111,2.111,0,0,1-1.017,1.516,2.228,2.228,0,0,1-1.26,0Zm261.663-.675a2.365,2.365,0,0,1-1.01-1.516l-1.86-8.42v-1.016a2.445,2.445,0,0,1,1.86-2.016l7.759-1.6a2.276,2.276,0,0,1,2.87,1.766l1.852,9.012a2.269,2.269,0,0,1-1.769,2.774l-2.445.508-.083-.675-5.4,1.182H293a2.4,2.4,0,0,1-1.268,0ZM277.394,98.962h-.585a2.508,2.508,0,0,1-1.518-1.091l-4.646-7.92a2.231,2.231,0,0,1,0-1.766,1.958,1.958,0,0,1,1.1-1.432l6.073-3.706a2.454,2.454,0,0,1,3.287.841l4.472,8.17a2.349,2.349,0,0,1-.843,3.2l-6.157,3.706a2.8,2.8,0,0,1-.589.063A2.878,2.878,0,0,1,277.394,98.962Zm-233.072-.25-6.074-3.706a2.286,2.286,0,0,1-1.108-1.417,2.259,2.259,0,0,1,.266-1.781l4.639-7.92a2.463,2.463,0,0,1,3.295-.841L51.5,86.752a2.373,2.373,0,0,1,.843,1.182,2.524,2.524,0,0,1,0,1.766l-4.722,7.913a2.627,2.627,0,0,1-1.435,1.1H45.59a3.569,3.569,0,0,1-1.268,0Zm206.5-36.13a2.443,2.443,0,0,1-1.769-.758l-6.241-6.654v-.584a2.352,2.352,0,0,1,.676-2.448l5.732-5.472a2.376,2.376,0,0,1,3.378,0l6.157,6.821a2.367,2.367,0,0,1,0,3.373l-.759.758-.676.584L253.1,62.166a2.287,2.287,0,0,1-1.495.556A2.265,2.265,0,0,1,250.822,62.583ZM69.884,61.908l-4.221-3.956-.585-.591-.843-.758a2.428,2.428,0,0,1,0-3.365l6.324-6.655a2.367,2.367,0,0,1,3.371,0l5.823,5.472a2.539,2.539,0,0,1-.167,2.531v.584l-6.332,6.654a2.43,2.43,0,0,1-1.769.758A2.249,2.249,0,0,1,69.884,61.908Z" transform="translate(93.799 94.111)" fill="#fff"/>
  </g>
</svg>
