<svg width="20" height="20" viewBox="0 0 20 20" fill="none" xmlns="http://www.w3.org/2000/svg"><path fill-rule="evenodd" clip-rule="evenodd" d="M9 3a1 1 0 0 1 2 0v1a1 1 0 0 1-.006.11c.334.073.649.185.944.334a3.394 3.394 0 0 1 1.39 1.238c.338.524.508 1.124.508 1.799h-1.838a1.53 1.53 0 0 0-.291-.857 1.682 1.682 0 0 0-.725-.576 2.47 2.47 0 0 0-1.045-.21c-.399 0-.75.072-1.054.218-.303.14-.54.337-.71.592a1.48 1.48 0 0 0-.246.833c0 .301.08.563.24.786.159.224.385.392.679.507.164.062.346.109.545.14.2.026.458.052.777.078.344.026.64.057.889.093.249.031.495.086.74.164.697.218 1.237.591 1.62 1.12.389.525.583 1.166.583 1.924 0 .712-.167 1.348-.5 1.908a3.48 3.48 0 0 1-1.397 1.324c-.339.18-.708.308-1.107.386.003.03.004.059.004.089v1a1 1 0 1 1-2 0v-1c0-.034.002-.068.005-.1a4.244 4.244 0 0 1-1.04-.36 3.541 3.541 0 0 1-1.442-1.284C6.174 13.706 6 13.075 6 12.363h1.823c0 .353.094.668.283.943.195.27.461.48.8.63.338.151.722.226 1.15.226.433 0 .81-.075 1.128-.226a1.7 1.7 0 0 0 .74-.623c.174-.264.26-.565.26-.903 0-.332-.086-.61-.26-.833a1.538 1.538 0 0 0-.688-.506 2.816 2.816 0 0 0-.597-.148c-.22-.037-.5-.07-.844-.101a22.808 22.808 0 0 1-.904-.11 4.875 4.875 0 0 1-.628-.14c-.692-.212-1.227-.581-1.606-1.105-.373-.53-.56-1.16-.56-1.893 0-.68.162-1.29.486-1.83.328-.545.784-.97 1.367-1.277a3.911 3.911 0 0 1 1.054-.375A1.014 1.014 0 0 1 9 4V3z" fill="#3E3E3E"/></svg>