<svg width="20" height="20" viewBox="0 0 20 20" fill="none" xmlns="http://www.w3.org/2000/svg"><path fill-rule="evenodd" clip-rule="evenodd" d="M3.75 6v7A3.25 3.25 0 0 0 7 16.25h6A3.25 3.25 0 0 0 16.25 13V6h1.5v7A4.75 4.75 0 0 1 13 17.75H7A4.75 4.75 0 0 1 2.25 13V6h1.5z" fill="#3E3E3E"/><path fill-rule="evenodd" clip-rule="evenodd" d="M10.139 2.494a.25.25 0 0 0-.278 0l-8.445 5.63a.75.75 0 0 1-.832-1.248l8.445-5.63a1.75 1.75 0 0 1 1.942 0l8.445 5.63a.75.75 0 1 1-.832 1.248l-8.445-5.63zM6.25 13a3.75 3.75 0 1 1 7.5 0v4h-1.5v-4a2.25 2.25 0 0 0-4.5 0v4h-1.5v-4z" fill="#3E3E3E"/></svg>