<svg width="20" height="20" viewBox="0 0 20 20" fill="none" xmlns="http://www.w3.org/2000/svg"><mask id="a" fill="#fff"><path fill-rule="evenodd" clip-rule="evenodd" d="M12.265 19h4.429a2 2 0 0 0 1.98-2.283l-1.429-10A2 2 0 0 0 15.265 5h-1.571c1.02 0 1.842.757 1.98 1.712a.499.499 0 0 1 .086.217l1.429 10a.5.5 0 0 1-.495.571h-2.492a2 2 0 0 1-1.937 1.5z"/></mask><path fill-rule="evenodd" clip-rule="evenodd" d="M12.265 19h4.429a2 2 0 0 0 1.98-2.283l-1.429-10A2 2 0 0 0 15.265 5h-1.571c1.02 0 1.842.757 1.98 1.712a.499.499 0 0 1 .086.217l1.429 10a.5.5 0 0 1-.495.571h-2.492a2 2 0 0 1-1.937 1.5z" fill="#3E3E3E"/><path d="M18.674 16.717l-1.485.212 1.485-.212zm-1.429-10l-1.485.212 1.485-.212zm-1.571-.005l-1.485.214.052.357.208.294 1.225-.865zm.086.217l-1.485.212 1.485-.212zm1.429 10l1.485-.212-1.485.212zm-2.987.571V16H13.04l-.29 1.126 1.453.374zm-1.937 3h4.429v-3h-4.429v3zm4.429 0a3.5 3.5 0 0 0 3.465-3.995l-2.97.424a.5.5 0 0 1-.495.571v3zm3.465-3.995l-1.429-10-2.97.424 1.429 10 2.97-.424zm-1.429-10A3.5 3.5 0 0 0 15.265 3.5v3a.5.5 0 0 1 .495.43l2.97-.425zM15.265 3.5h-1.571v3h1.571v-3zm-1.571 3c.252 0 .46.187.495.426l2.97-.43A3.501 3.501 0 0 0 13.694 3.5v3zm3.551.217a1.999 1.999 0 0 0-.346-.871l-2.45 1.731a1.002 1.002 0 0 1-.174-.436l2.97-.424zm1.429 10l-1.429-10-2.97.424 1.43 10 2.969-.424zM16.694 19a2 2 0 0 0 1.98-2.283l-2.97.424a1 1 0 0 1 .99-1.141v3zm-2.492 0h2.492v-3h-2.492v3zm-1.453-1.874a.5.5 0 0 1-.484.374v3a3.5 3.5 0 0 0 3.39-2.626l-2.906-.748z" fill="#3E3E3E" mask="url(#a)"/><mask id="b" fill="#fff"><path fill-rule="evenodd" clip-rule="evenodd" d="M13.694 6.5h-8.96a.5.5 0 0 0-.494.43l-1.429 10a.5.5 0 0 0 .495.57h8.96a.5.5 0 0 0 .494-.43l1.429-10a.5.5 0 0 0-.495-.57zM4.734 5a2 2 0 0 0-1.98 1.717l-1.428 10A2 2 0 0 0 3.306 19h8.96a2 2 0 0 0 1.98-1.717l1.428-10A2 2 0 0 0 13.694 5h-8.96z"/></mask><path fill-rule="evenodd" clip-rule="evenodd" d="M13.694 6.5h-8.96a.5.5 0 0 0-.494.43l-1.429 10a.5.5 0 0 0 .495.57h8.96a.5.5 0 0 0 .494-.43l1.429-10a.5.5 0 0 0-.495-.57zM4.734 5a2 2 0 0 0-1.98 1.717l-1.428 10A2 2 0 0 0 3.306 19h8.96a2 2 0 0 0 1.98-1.717l1.428-10A2 2 0 0 0 13.694 5h-8.96z" fill="#fff"/><path d="M4.24 6.93l1.485.211L4.24 6.93zm-1.429 10l-1.485-.213 1.485.212zm9.95.14l-1.486-.211 1.485.212zm1.428-10l1.485.213-1.485-.212zM2.755 6.718L1.27 6.505l1.485.212zm-1.429 10l-1.485-.212 1.485.212zm12.92.566l-1.486-.212 1.485.212zm1.428-10l-1.485-.212 1.485.212zM4.734 8h8.96V5h-8.96v3zm.99-.859a1 1 0 0 1-.99.859V5a2 2 0 0 0-1.98 1.717l2.97.424zm-1.428 10l1.429-10-2.97-.424-1.429 10 2.97.424zM3.306 16a1 1 0 0 1 .99 1.141l-2.97-.424A2 2 0 0 0 3.306 19v-3zm8.96 0h-8.96v3h8.96v-3zm-.99.859a1 1 0 0 1 .99-.859v3a2 2 0 0 0 1.98-1.717l-2.97-.424zm1.428-10l-1.429 10 2.97.424 1.429-10-2.97-.424zM13.694 8a1 1 0 0 1-.99-1.141l2.97.424A2 2 0 0 0 13.694 5v3zM4.24 6.93a.5.5 0 0 1 .495-.43v-3A3.5 3.5 0 0 0 1.27 6.505l2.97.424zm-1.429 10l1.429-10-2.97-.425-1.429 10 2.97.424zm.495.57a.5.5 0 0 1-.495-.57l-2.97-.425A3.5 3.5 0 0 0 3.306 20.5v-3zm8.96 0h-8.96v3h8.96v-3zm.494-.43a.5.5 0 0 1-.495.43v3a3.5 3.5 0 0 0 3.465-3.005l-2.97-.424zm1.429-10l-1.429 10 2.97.425 1.429-10-2.97-.424zm-.495-.57a.5.5 0 0 1 .495.57l2.97.425A3.5 3.5 0 0 0 13.694 3.5v3zm-8.96 0h8.96v-3h-8.96v3z" fill="#3E3E3E" mask="url(#b)"/><mask id="c" fill="#fff"><path fill-rule="evenodd" clip-rule="evenodd" d="M10 2.75A3.25 3.25 0 0 0 6.75 6h-1.5a4.75 4.75 0 0 1 9.5 0h-1.5A3.25 3.25 0 0 0 10 2.75z"/></mask><path fill-rule="evenodd" clip-rule="evenodd" d="M10 2.75A3.25 3.25 0 0 0 6.75 6h-1.5a4.75 4.75 0 0 1 9.5 0h-1.5A3.25 3.25 0 0 0 10 2.75z" fill="#3E3E3E"/><path d="M6.75 6v1.5h1.5V6h-1.5zm-1.5 0h-1.5v1.5h1.5V6zm9.5 0v1.5h1.5V6h-1.5zm-1.5 0h-1.5v1.5h1.5V6zm-5 0c0-.966.784-1.75 1.75-1.75v-3A4.75 4.75 0 0 0 5.25 6h3zm-3 1.5h1.5v-3h-1.5v3zM10-.25A6.25 6.25 0 0 0 3.75 6h3A3.25 3.25 0 0 1 10 2.75v-3zM16.25 6A6.25 6.25 0 0 0 10-.25v3A3.25 3.25 0 0 1 13.25 6h3zm-3 1.5h1.5v-3h-1.5v3zM10 4.25c.966 0 1.75.784 1.75 1.75h3A4.75 4.75 0 0 0 10 1.25v3z" fill="#3E3E3E" mask="url(#c)"/></svg>