<svg width="20" height="20" viewBox="0 0 20 20" fill="none" xmlns="http://www.w3.org/2000/svg"><path d="M6.335 16.33a.75.75 0 0 0-.67 0l-2.553 1.276a.25.25 0 0 1-.362-.224V3c0-.69.56-1.25 1.25-1.25h12c.69 0 1.25.56 1.25 1.25v14.382a.25.25 0 0 1-.362.224l-2.553-1.277a.75.75 0 0 0-.67 0l-3.106 1.553a1.25 1.25 0 0 1-1.118 0l-3.106-1.553z" stroke="#3E3E3E" stroke-width="1.5" stroke-linejoin="round"/><rect x="6" y="7" width="6" height="1.5" rx=".75" fill="#3E3E3E"/><rect x="6" y="10" width="8" height="1.5" rx=".75" fill="#3E3E3E"/></svg>