<svg width="20" height="20" viewBox="0 0 20 20" fill="none" xmlns="http://www.w3.org/2000/svg"><g clip-path="url(#clip0)" fill="#3E3E3E"><rect x="1" y="18" width="2" height="2" rx="1"/><rect x="6" y="16" width="2" height="4" rx="1"/><rect x="11" y="14" width="2" height="6" rx="1"/><rect x="16" y="10" width="2" height="10" rx="1"/><path fill-rule="evenodd" clip-rule="evenodd" d="M15.735 7.462c-.839 1.518-2.321 3.364-4.888 4.703-2.499 1.303-5.023 1.98-6.915 2.333-.948.177-1.742.273-2.302.325a18.069 18.069 0 0 1-.834.058l-.049.002H.728l-.019-.75-.017-.75h.009l.036-.001.153-.007c.137-.008.34-.022.601-.046a24.08 24.08 0 0 0 2.166-.306c1.797-.335 4.168-.974 6.496-2.188 2.26-1.179 3.546-2.79 4.269-4.098a9.072 9.072 0 0 0 .713-1.65 6.357 6.357 0 0 0 .157-.594l.004-.025v-.002l.741.12.74.12v.003l-.001.006-.003.015a3.012 3.012 0 0 1-.045.219 7.853 7.853 0 0 1-.162.589 10.568 10.568 0 0 1-.831 1.924zM.692 13.384z"/><path d="M16.39 2.515a.5.5 0 0 1 .782.37l.388 4.79a.5.5 0 0 1-.713.491l-2.17-1.029-2.17-1.029a.5.5 0 0 1-.07-.863l3.953-2.73z"/></g><defs><clipPath id="clip0"><path fill="#fff" d="M0 0h20v20H0z"/></clipPath></defs></svg>