<svg width="20" height="20" viewBox="0 0 20 20" fill="none" xmlns="http://www.w3.org/2000/svg"><rect x="1" y="18" width="18" height="1.5" rx=".75" fill="#3E3E3E"/><rect x="3" y="10" width="1.5" height="9" rx=".75" fill="#3E3E3E"/><rect x="15.5" y="10" width="1.5" height="9" rx=".75" fill="#3E3E3E"/><path d="M7 2h6v5a3 3 0 0 1-3 3v0a3 3 0 0 1-3-3V2zM2.517 3.29A1.987 1.987 0 0 1 4.377 2H7v5.135A2.865 2.865 0 0 1 4.135 10v0c-2 0-3.386-1.998-2.683-3.871l1.065-2.84zM13 2h2.623c.828 0 1.57.514 1.86 1.29l1.065 2.839C19.251 8.002 17.866 10 15.865 10v0A2.865 2.865 0 0 1 13 7.135V2z" stroke="#3E3E3E" stroke-width="1.5"/><circle cx="13" cy="14" r="1" fill="#3E3E3E"/></svg>