<svg width="20" height="20" viewBox="0 0 20 20" fill="none" xmlns="http://www.w3.org/2000/svg"><path d="M2.598 8.606l.453.597-.453-.597a1.75 1.75 0 0 0 0 2.789l1.309.992a.25.25 0 0 1 .097.233l-.224 1.628a1.75 1.75 0 0 0 1.972 1.972l1.628-.224a.25.25 0 0 1 .233.097l.993 1.31a1.75 1.75 0 0 0 2.789 0l.992-1.31a.25.25 0 0 1 .233-.097l1.628.224a1.75 1.75 0 0 0 1.972-1.972l-.224-1.628a.25.25 0 0 1 .097-.233l1.31-.992a1.75 1.75 0 0 0 0-2.79l-1.31-.992a.25.25 0 0 1-.097-.233l.224-1.628a1.75 1.75 0 0 0-1.972-1.972l-1.628.224a.25.25 0 0 1-.233-.097l-.992-1.31a1.75 1.75 0 0 0-2.79 0l-.992 1.31a.25.25 0 0 1-.233.097L5.752 3.78A1.75 1.75 0 0 0 3.78 5.752l.224 1.628a.25.25 0 0 1-.097.233l-1.31.993z" stroke="#3E3E3E" stroke-width="1.5" stroke-linejoin="round"/><path d="M7.733 7c.33 0 .625.068.886.203.264.132.47.316.62.55.15.231.226.49.226.776a1.4 1.4 0 0 1-.227.777 1.563 1.563 0 0 1-.619.55 1.93 1.93 0 0 1-.886.199c-.333 0-.631-.067-.896-.2a1.57 1.57 0 0 1-.614-.55A1.407 1.407 0 0 1 6 8.53c0-.286.074-.545.223-.776.148-.234.353-.418.614-.55C7.102 7.068 7.4 7 7.733 7zm4.16.09h1.118l-4.913 5.832H6.975l4.918-5.832zm-4.16 2.15c.148 0 .283-.03.405-.09a.678.678 0 0 0 .388-.62.658.658 0 0 0-.103-.364.71.71 0 0 0-.285-.257.875.875 0 0 0-.405-.094.895.895 0 0 0-.415.094.717.717 0 0 0-.28.257.658.658 0 0 0-.103.363.678.678 0 0 0 .383.62c.122.06.26.09.415.09zm4.52.71c.333 0 .632.067.896.202.268.133.475.316.624.55.151.232.227.49.227.773a1.4 1.4 0 0 1-.227.776 1.556 1.556 0 0 1-.624.55 1.968 1.968 0 0 1-.895.199c-.33 0-.627-.066-.891-.199a1.604 1.604 0 0 1-.62-.55 1.42 1.42 0 0 1-.222-.776c0-.284.074-.541.223-.773.151-.234.358-.417.619-.55.264-.135.561-.203.89-.203zm0 2.239a.868.868 0 0 0 .41-.094.678.678 0 0 0 .387-.62.684.684 0 0 0-.387-.616.867.867 0 0 0-.41-.094.874.874 0 0 0-.404.093.683.683 0 0 0-.286.983.72.72 0 0 0 .286.254.875.875 0 0 0 .405.094z" fill="#3E3E3E"/></svg>