<svg width="20" height="20" viewBox="0 0 20 20" fill="none" xmlns="http://www.w3.org/2000/svg"><path d="M15.21 6.357l-1.397-1.461a.163.163 0 0 1 .005-.228l2.004-1.913a.16.16 0 0 0-.058-.268 3.13 3.13 0 0 0-1.641-.124 3.135 3.135 0 0 0-2.496 2.65c-.06.47-.017.924.11 1.34L6.48 11.867a3.122 3.122 0 0 0-4.015 3.818.161.161 0 0 0 .264.073L4.603 14a.158.158 0 0 1 .225.007l1.396 1.461c.061.065-.004.227-.004.227L4.341 17.49a.161.161 0 0 0 .057.268c.49.18 1.04.243 1.616.141a3.139 3.139 0 0 0 2.474-2.3 3.101 3.101 0 0 0-.073-1.79l5.268-5.436a3.064 3.064 0 0 0 1.786.089 3.147 3.147 0 0 0 2.31-2.381 3.087 3.087 0 0 0-.063-1.54.16.16 0 0 0-.264-.07L15.434 6.36a.158.158 0 0 1-.225-.004z" stroke="#3E3E3E" stroke-width="1.2" stroke-miterlimit="10"/><path d="M8.21 9.74L3 4.5l.09-1.227a.5.5 0 0 1 .498-.464h1.03l5.338 5.336m.061 3.865c.013.546.229 1.09.647 1.503l3.775 3.734a1.392 1.392 0 0 0 2.015-.065l1.192-1.336a1.392 1.392 0 0 0-.103-1.959l-3.877-3.537a2.17 2.17 0 0 0-1.322-.565" stroke="#3E3E3E" stroke-width="1.2" stroke-miterlimit="10"/><path d="M13 12.5l2 2" stroke="#3E3E3E" stroke-width="1.5" stroke-miterlimit="10" stroke-linecap="round"/></svg>