<svg width="60" height="60" viewBox="0 0 60 60" fill="none" xmlns="http://www.w3.org/2000/svg">
<mask id="mask0" mask-type="alpha" maskUnits="userSpaceOnUse" x="0" y="0" width="60" height="60">
<rect x="0.5" y="0.5" width="59" height="59" rx="5.5" fill="#C4C4C4" stroke="#A6A6A5"/>
</mask>
<g mask="url(#mask0)">
<rect x="0.5" y="0.5" width="59" height="59" rx="5.5" fill="#C4C4C4" stroke="#A6A6A5"/>
</g>
<path fill-rule="evenodd" clip-rule="evenodd" d="M25.5556 21.6418L24.6726 23.5402H22.3437C20.497 23.5402 19 25.0216 19 26.849V35.3382C19 37.1656 20.497 38.6471 22.3437 38.6471H36.8328C38.6795 38.6471 40.1765 37.1656 40.1765 35.3382V26.849C40.1765 25.0216 38.6795 23.5402 36.8328 23.5402H34.5039L33.6209 21.6418C33.439 21.2506 33.0436 21 32.6084 21H26.568C26.1329 21 25.7375 21.2506 25.5556 21.6418ZM25.7434 25.1953L26.9248 22.655H32.2513L33.4328 25.1953H36.8327C37.756 25.1953 38.5045 25.936 38.5045 26.8497V35.3389C38.5045 36.2526 37.756 36.9933 36.8327 36.9933H22.3435C21.4202 36.9933 20.6717 36.2526 20.6717 35.3389V26.8497C20.6717 25.936 21.4202 25.1953 22.3435 25.1953H25.7434Z" fill="white"/>
<path fill-rule="evenodd" clip-rule="evenodd" d="M25.1301 30.9269C25.1301 33.3635 27.1261 35.3387 29.5883 35.3387C32.0505 35.3387 34.0465 33.3635 34.0465 30.9269C34.0465 28.4904 32.0505 26.5151 29.5883 26.5151C27.1261 26.5151 25.1301 28.4904 25.1301 30.9269ZM32.3744 30.9267C32.3744 32.4495 31.1269 33.684 29.588 33.684C28.0491 33.684 26.8016 32.4495 26.8016 30.9267C26.8016 29.4038 28.0491 28.1693 29.588 28.1693C31.1269 28.1693 32.3744 29.4038 32.3744 30.9267Z" fill="white"/>
</svg>
