<svg width="16" height="15" viewBox="0 0 16 15" fill="none" xmlns="http://www.w3.org/2000/svg"><path fill-rule="evenodd" clip-rule="evenodd" d="M6.362 1.505c.75-1.427 2.793-1.427 3.542 0l5.156 9.826c.7 1.332-.267 2.93-1.77 2.93H2.976c-1.504 0-2.47-1.598-1.77-2.93l5.155-9.826zm1.771 1.108a.878.878 0 0 1 .868.954L8.604 8.7a.475.475 0 0 1-.508.441.476.476 0 0 1-.433-.44l-.397-5.134a.88.88 0 0 1 .867-.954zm.832 8.452a.838.838 0 0 0-.832-.845.838.838 0 0 0-.83.845c0 .466.371.844.83.844.46 0 .832-.378.832-.845z" fill="#fff"/></svg>