<svg width="16" height="16" viewBox="0 0 16 16" fill="none" xmlns="http://www.w3.org/2000/svg"><g opacity="0.5"><path fill-rule="evenodd" clip-rule="evenodd" d="M2.86029 2.86151C2.60223 3.11957 2.60223 3.53796 2.86029 3.79602L7.06557 8.0013L2.86029 12.2066C2.60223 12.4646 2.60223 12.883 2.86029 13.1411C3.11835 13.3991 3.53674 13.3991 3.7948 13.1411L8.00008 8.93581L12.2054 13.1411C12.4634 13.3991 12.8818 13.3991 13.1399 13.1411C13.3979 12.883 13.3979 12.4646 13.1399 12.2066L8.93459 8.0013L13.1399 3.79602C13.3979 3.53796 13.3979 3.11957 13.1399 2.86151C12.8818 2.60345 12.4634 2.60345 12.2054 2.86151L8.00008 7.06679L3.7948 2.86151C3.53674 2.60345 3.11835 2.60345 2.86029 2.86151Z" fill="white"/></g></svg>
