<svg width="18" height="24" viewBox="0 0 18 24" fill="none" xmlns="http://www.w3.org/2000/svg">
<path d="M6.53676 16.2972C6.63312 15.5392 6.05494 14.8759 5.28403 14.8759L1.52587 14.9707C1.23678 14.9707 0.851326 14.8759 0.6586 14.5917C0.36951 14.3074 0.273147 13.9284 0.36951 13.6442L4.70585 0.85276C4.80222 0.284253 5.18767 0 5.76585 0H13.8604C14.1494 0 14.6313 0.189502 14.7276 0.568506C14.824 0.85276 14.9204 1.32652 14.7276 1.61077L12.3185 7.95909C12.1258 8.62235 12.6076 9.38036 13.3785 9.38036H16.5585C16.944 9.38036 17.3294 9.56986 17.5222 9.94886C17.7149 10.2331 17.7149 10.7069 17.5222 10.9911L8.27129 23.4983C7.50039 24.4458 5.86221 23.972 5.95858 22.7403C6.53676 16.2972 6.53676 16.2972 6.53676 16.2972Z" fill="#EA1D2C"/>
</svg>
