<svg width="16" height="16" viewBox="0 0 16 16" fill="none" xmlns="http://www.w3.org/2000/svg">
<path fill-rule="evenodd" clip-rule="evenodd" d="M8.97003 6.99738C9.15566 7.20181 9.14042 7.51803 8.93599 7.70366L7.94126 8.60692C7.87473 8.66745 7.8417 8.73888 7.83478 8.80506C7.8279 8.87077 7.84535 8.94163 7.89385 9.00665C7.94336 9.07301 8.02415 9.13069 8.12918 9.15866C8.23436 9.18667 8.3474 9.18018 8.44605 9.14183C8.4461 9.14181 8.446 9.14185 8.44605 9.14183L9.8596 8.59119C10.1574 8.47574 10.4875 8.4585 10.796 8.54091C11.1047 8.62339 11.3824 8.80347 11.5746 9.06136C11.7678 9.32058 11.8603 9.64024 11.8265 9.96432C11.7927 10.2878 11.6368 10.5813 11.3988 10.7979C11.3988 10.7979 11.3988 10.7979 11.3988 10.7979L10.4046 11.7032C10.2004 11.8891 9.88421 11.8743 9.69829 11.6701C9.51237 11.466 9.52718 11.1497 9.73135 10.9638L10.7256 10.0585C10.7921 9.99796 10.825 9.92664 10.8319 9.86045C10.8387 9.79479 10.8213 9.724 10.7729 9.65902C10.7234 9.59271 10.6428 9.53505 10.5379 9.50703C10.4329 9.47898 10.32 9.48532 10.2213 9.52347C10.2212 9.52351 10.2214 9.52343 10.2213 9.52347L8.80903 10.0736C8.51111 10.1896 8.18065 10.2072 7.87184 10.125C7.56282 10.0427 7.28478 9.86261 7.0923 9.60458C6.89882 9.34521 6.80625 9.02528 6.84021 8.70094C6.87411 8.37713 7.03035 8.08351 7.26868 7.8669L8.26374 6.96334C8.46818 6.7777 8.78439 6.79294 8.97003 6.99738Z" fill="#2E6788"/>
<path fill-rule="evenodd" clip-rule="evenodd" d="M6.97979 6.97994C7.17505 6.78468 7.49163 6.78468 7.6869 6.97994L8.0409 7.33394C8.23616 7.5292 8.23616 7.84579 8.0409 8.04105C7.84563 8.23631 7.52905 8.23631 7.33379 8.04105L6.97979 7.68705C6.78453 7.49179 6.78453 7.1752 6.97979 6.97994Z" fill="#2E6788"/>
<path fill-rule="evenodd" clip-rule="evenodd" d="M10.6701 10.6707C10.8651 10.4753 11.1817 10.475 11.3772 10.67L11.7312 11.0234C11.9266 11.2185 11.9269 11.535 11.7318 11.7305C11.5368 11.9259 11.2202 11.9262 11.0247 11.7311L10.6707 11.3778C10.4753 11.1827 10.475 10.8662 10.6701 10.6707Z" fill="#2E6788"/>
<path fill-rule="evenodd" clip-rule="evenodd" d="M4.05286 1.3314C4.05402 1.05526 4.27881 0.832342 4.55495 0.833501L5.88764 0.839093C6.69285 0.842472 7.46653 1.15246 8.05129 1.70601L14.4127 7.72779C15.6802 8.92764 15.7379 10.9269 14.5417 12.1978L12.5244 14.3412C11.3 15.6422 9.24249 15.6733 7.97925 14.4101L1.76084 8.19168C1.16697 7.59781 0.833344 6.79236 0.833344 5.9525V4.55301C0.833344 4.27687 1.0572 4.05301 1.33334 4.05301C1.60949 4.05301 1.83334 4.27687 1.83334 4.55301V5.9525C1.83334 6.52714 2.06162 7.07824 2.46795 7.48457L8.68636 13.703C9.55068 14.5673 10.9585 14.546 11.7962 13.6559L13.8135 11.5125C14.632 10.6429 14.5925 9.27497 13.7252 8.45402L7.36384 2.43224C6.96374 2.0535 6.43438 1.8414 5.88345 1.83908L4.55076 1.83349C4.27462 1.83233 4.0517 1.60754 4.05286 1.3314Z" fill="#2E6788"/>
<path opacity="0.2" d="M5.33334 8.43256V8.23941C5.33334 6.63452 6.63437 5.3335 8.23926 5.3335C8.72825 5.3335 9.19915 5.51841 9.55748 5.85115L11.7251 7.86392C12.7994 8.86151 12.867 10.5393 11.8763 11.62L11.8136 11.6884C10.8139 12.779 9.11743 12.8473 8.03329 11.8406L5.99354 9.94654C5.57255 9.55562 5.33334 9.00706 5.33334 8.43256Z" fill="#2E6788" fill-opacity="0.3"/>
<path fill-rule="evenodd" clip-rule="evenodd" d="M5 4.5C4.72386 4.5 4.5 4.72386 4.5 5C4.5 5.27614 4.72386 5.5 5 5.5C5.27614 5.5 5.5 5.27614 5.5 5C5.5 4.72386 5.27614 4.5 5 4.5ZM3.5 5C3.5 4.17157 4.17157 3.5 5 3.5C5.82843 3.5 6.5 4.17157 6.5 5C6.5 5.82843 5.82843 6.5 5 6.5C4.17157 6.5 3.5 5.82843 3.5 5Z" fill="#2E6788"/>
<path fill-rule="evenodd" clip-rule="evenodd" d="M0.313103 0.312951C0.508365 0.117688 0.824948 0.117688 1.02021 0.312951L4.35354 3.64628C4.54881 3.84155 4.54881 4.15813 4.35354 4.35339C4.15828 4.54865 3.8417 4.54865 3.64644 4.35339L0.313103 1.02006C0.117841 0.824795 0.117841 0.508213 0.313103 0.312951Z" fill="#2E6788"/>
</svg>
