<svg width="16" height="17" viewBox="0 0 16 17" fill="none" xmlns="http://www.w3.org/2000/svg"><ellipse cx="8" cy="8.473" rx="8" ry="8.145" fill="#fff"/><path fill-rule="evenodd" clip-rule="evenodd" d="M0 8.473C0 3.974 3.582.327 8 .327s8 3.647 8 8.146c0 4.498-3.582 8.145-8 8.145s-8-3.646-8-8.145zM8.08 3.55a.825.825 0 0 1 .814.898L8.52 9.277a.446.446 0 0 1-.477.414.447.447 0 0 1-.407-.414l-.373-4.828a.828.828 0 0 1 .815-.898zm-.183 7.505a.88.88 0 0 0-.873.888c0 .49.391.889.873.889h.353a.88.88 0 0 0 .873-.889.88.88 0 0 0-.873-.888h-.353z" fill="#E7A74E"/></svg>