<svg width="482" height="474" viewBox="0 0 482 474" fill="none" xmlns="http://www.w3.org/2000/svg"><path opacity=".5" d="M404.866 321.903c14.572-18.89 25.116-54.118 27.255-74.126 3.699-34.589-6.343-58.7-22.985-88.752-18.05-32.572-47.091-55.157-85.246-68.601-35.697-12.56-70.098-27.696-107.189-37.652-29.651-7.962-62.802-14.627-94.926-5.853-28.57 7.824-51.044 28.812-63.758 52.219-8.509 15.675-13.1 32.468-15.316 49.171-2.287 16.997 1.025 33.1 2.126 49.833 1.56 24.357-18.286 35.852-21.658 60.489-5.217 38.06 14.343 101.539 47.026 124.656 19.894 14.122 46.209 20.425 72.78 21.792 61.191 3.225 127.699-10.065 185.526-32.915 29.17-11.457 58.276-26.8 76.365-50.261z" fill="#FFE9E8"/><path d="M208.923 408.635c32.892 0 59.556-2.875 59.556-6.421 0-3.546-26.664-6.421-59.556-6.421-32.892 0-59.557 2.875-59.557 6.421 0 3.546 26.665 6.421 59.557 6.421z" fill="#E0C5C0"/><path d="M172.562 244.132c-2.455 3.564 2.021 4.3 2.021 4.3l-1.468 11.317s-4.284 33.291-28.91 31.89c-4.04-.248-7.712-1.773-10.795-4.299-2.842-2.347-8.338-4.437-16.108 1.938-12.082 9.99-20.553 38.159-10.223 34.294 7.728-2.819 10.252-3.762 11.014-3.994.342-.171 2.268 1.692 2.576 1.495 2.422-.806 11.752-2.413 17.325.002 16.248 6.945 30.442 13.206 49.437-4.659 18.858-17.967 18.308-25.231 19.57-36.274 0 0-1.143-12.902 3.368-11.711" fill="#BB74A9"/><path d="M170.453 265.447c-1.094-11.841-2-24.229-4.567-35.97-3.49-16.482-.522-19.661-.522-19.661-.686-3.94-6.439-8.257-9.213-9.91-1.908.977-3.808 1.371-5.914 1.183-2.106-.188-6.225 3.096-7.904 1.837-1.678-1.259-.529-6.933-1.343-8.775-.736-1.944-1.028-3.983-.524-6.013.401-2.108 1.282-3.856 2.677-5.432 1.394-1.576 3.166-2.656 5.143-3.153 1.977-.497 10.363-4.482 13.995 3.382 8.955 2.971 26.408 7.235 26.408 7.235 30.171-6.709 38.754-24.311 33.773-47.094-.723-3.309-6.013-40.987 20.672-13.062 2.706 6.669 10.617 21.678 10.492 32.014-.337 36.091-28.765 51.267-39.643 52.151 48.71 22.523 68.276 14.316 75.679 12.216 14.85-4.448 10.853 12.617-5.133 21.416-19.229 10.676-33.265 5.581-41.38 2.489 18.477 15.469 32.56 45.733 27.612 66.268-6.119 24.741-31.593 31.832-43.994 33.393-7.327.926-6.329 3.519-10.487 8.857-9.898 12.431-4.116-19.146-3.641-31.851.372-12.781 4.157-7.693 10.156-10.847 32.441-16.82-1.138-43.192-10.04-43.662-4.725-.12-4.783 5.029-4.783 5.029" fill="#BB74A9"/><path d="M212.626 179.271c-3.714 2.245-22.402 10.498-23.857 10.798 0 0-20.082 9.286-24.392 17.68-4.31 8.395-.044 15.31 1.443 22.107 2.024 9.562 1.375 9.076 2.306 18.372 15.972 1.171 56.062-13.058 56.062-13.058s-4.889-9.022-7.676-18.076c-.047-.15.208-.276.042-.343-2.049-1.373-1.827-2.543-1.062-1.011 8.131-1.714 26.667-14.727 25.596-16.976-1.07-2.249-24.537-9.855-28.462-19.493z" fill="#E7A74E"/><path d="M147.936 184.11c.459.344.462.647 0 1.129-.265.354-1.213.048-1.48-.152-.274-.42-.129-.9.188-1.037.473-.067.862-.263 1.292.06zm-.655 3.119c.459.344.461.647 0 1.129-.265.354-1.213.048-1.48-.153-.275-.419-.129-.899.187-1.036.473-.068.863-.263 1.293.06zm4.937 3.733l-1.712-1.713c-.137-.103-.137-.103-.172-.343l-.034-.24s-.034-.24.068-.377l.206-.274 2.122-2.048-1.773-1.918c-.137-.103-.137-.103-.171-.343-.137-.103-.035-.24.068-.377l.205-.274c.103-.137.103-.137.343-.172l2.601-1.045c.24-.034.48-.069.582.008.103.078.274.206.274.42.001.214.069.48-.008.583-.077.103-.205.274-.419.274l-1.729.737 1.576 1.61c.137.103.137.103.171.343l.034.24c.035.24-.068.377-.145.48l-2.122 2.047 1.199 1.114c.137.103.171.342.274.42.034.239-.069.376-.146.479-.077.103-.342.172-.419.274-.393.24-.599.3-.873.095z" fill="#771212"/><path d="M371.28 191.735c-4.033 16.671-21.156 26.893-38.652 22.972-17.496-3.921-28.775-20.787-24.844-37.535 2.059-8.892 16.499-6.461 34.021-2.574 17.522 3.886 31.313 9.898 29.475 17.137z" fill="#D06060"/><path d="M318.773 180.433c-1.491-2.295-1.448-3.709 4.652-9.14 3.636-4.284 3.739-4.421 2.692-10.023-1.492-8.721-8.484-7.384-11.192-15.838-1.037-3.187 2.633-7.231 7.152-7.694.24-.034.479-.068.582.009 7.592.076 9.863 7.186 12.928 10.877l3.203 4.009.547-2.587c.905-4.138-.475-10.365-3.001-13.706-2.963-3.829-7.535-8.437-15.659-10.946-8.919-2.303-18.368-2.541-27.363-.673l-1.138.163c-4.75 2.057-9.158.73-10.93-.975l-.137-.103c-4.949-4.89-2.949-11.847 1.559-17.081 5.938-6.571 17.245-5.099 17.245-5.099-2.603-2.167-3.94-5.74 3.121-7.882 6.581-2.074 15.372 1.686 15.372 1.686s30.627 8.956 39.737 39.074c5.776 18.785 6.141 33.297 1.175 49.856-.256 1.414-1.095 2.819-2.215 3.744-1.25.882-2.67 1.422-4.16 1.268-9.886-.941-30.633-3.448-34.17-8.939zm25.455-77.627c.6 1.627 1.894 6.827 4.923 4.711 3.055-1.937.93-9.312.93-9.312s-.774-8.61-5.934-7.075c-5.058 1.397-1.256 7.033.081 11.676zm-45.781-25.141c.496-1.234 1.506-2.296 2.79-2.939 2.225-1.114 6.067-2.459 9.038.787 3.485 3.632-1.744 5.543-4.14 6.314-.761.232-1.42.326-2.174.19-2.379.034-7.001-.437-5.514-4.352zm-29.266 23.01c2.02-2.125 9.901-6.007 11.598.298 1.166 4.3-3.191 4.832-5.578 5.021-.762.017-11.915.695-6.02-5.319z" fill="#E4002B"/><path d="M314.597 173.718c-2.833.283-5.614 2.639-3.781 5.62 1.216 2.09 3.827 3.46 5.89 4.419 2.954 1.413 6.112 2.552 9.211 3.486a140.213 140.213 0 0 0 18.146 4.195c5.513.924 11.23 1.574 16.93 1.248 2.73-.146 8.841-.806 7.992-5.029-.266-1.217-2.2-1.062-2.037.291.035.24.069.48-.008.583.034.24 0 0-.103.137-.102.137-.282.377-.102.137-.206.274-.488.651-.942.685-1.386.78-3.08.9-4.535.986-4.87.36-10.006-.281-14.799-.88-5.752-.89-11.401-1.918-16.879-3.459-2.346-.582-4.785-1.395-6.951-2.218-2.996-1.07-5.915-2.243-8.518-4.196a7.775 7.775 0 0 1-1.772-1.918c-.171-.557-.231-.763-.163-1.14l.282-.377c.077-.103.419-.274.522-.411.556-.171 1.078-.368 1.763-.497 1.352.051 1.061-1.988-.146-1.662z" fill="#771212"/><g opacity=".5"><path opacity=".5" d="M363.389 194.269c-3.027 9.399-12.603 13.615-21.462 15.801-1.9.394-1.454 3.298.421 2.938 9.757-2.314 20.403-7.173 23.857-17.642.505-1.817-2.252-2.921-2.816-1.097z" fill="#fff"/></g><g opacity=".66"><path opacity=".66" d="M322.036 142.364a19.16 19.16 0 0 1 5.145 3.272c1.472 1.533 2.654 3.169 3.468 5.01.737 1.731 3.543.625 2.704-1.182a17.47 17.47 0 0 0-4.076-6.056c-1.738-1.679-3.87-3.117-6.07-3.965-2.003-.539-3.097 2.279-1.171 2.921z" fill="#fff"/></g><g opacity=".66"><path opacity=".66" d="M306.165 98.712c2.037-.292 4.108-.13 6.034.513 1.926.642 3.886 1.524 5.427 2.895 1.439 1.293 3.423-1.072 1.882-2.228-1.815-1.576-4.177-2.706-6.454-3.451-2.277-.745-4.854-1.019-7.31-.667-1.797.257-1.377 3.195.421 2.938z" fill="#fff"/></g><g opacity=".66"><path opacity=".66" d="M299.404 105.311c-3.586-.068-7.121.653-10.313 2.486-3.192 1.834-5.536 4.464-7.29 7.592-.881 1.747 1.902 2.818 2.817 1.096 2.711-5.192 8.616-8.577 14.411-8.244 1.994.052 2.37-2.878.375-2.93z" fill="#fff"/></g><path fill-rule="evenodd" clip-rule="evenodd" d="M162.286 182.923c2.501.703 9.7 2.82 11.752 3.435-7.894-1.467-6.449 4.262-12.526 8.622-1.145.94-2.318.852-2.181.659 4.545-6.388 2.955-10.695 2.955-12.716z" fill="#915281"/><path d="M138.366 205.084c4.555 1.745 11.927-2.753 11.927-2.753-9.824-8.573-3.905-21.793-4.059-21.771-7.868 2.306-10.936 7.644-12.124 14.406-.983 5.372 2.781 8.888 4.256 10.118z" fill="#E12E2C"/><path d="M140.009 202.805c.199-.121.397-.242.51-.148.424.069.554.371.58.683l-1.193 9.3c.017.207-.078.32-.276.441l-14.558 11.797c-.198.122-.397.243-.509.148-.424-.068-.459-.484-.382-.804l3.662-10.973c-.009-.104.086-.217.181-.329l11.985-10.115z" fill="#E12E2C"/><path d="M103.05 216.231a1.327 1.327 0 0 1-1.236-.181c-.572-.399-.864-1.284-.362-1.842 3.889-5.747 12.062-17.077 15.827-16.211 4.985 1.15 25.188 6.103 25.188 6.103l-39.417 12.131z" fill="#E12E2C"/><path d="M147.876 197.412s-4.223 8.425 0 8.426c4.223 0 6.693-4.78 4.028-8.426m86.783-52.697c-1.074.139-16.359 5.366-32.476-6.567-3.492-2.857 1.498-5.054 8.755-5.054.786.236 6.858.205-1.389-6.376-7.739-6.176-11.976-11.522-2.112-8.928 0 0-4.935-4.939-2.273-6.101 3.69-1.601 11.657 5.622 15.012 7.581 0 0-6.704-5.929-3.443-7.679 3.815-2.042 19.9 8.246 22.896 20.346l-4.97 12.778z" fill="#BB74A9"/><path d="M211.133 117.588s6.517 3.62 9.201 7.924" stroke="#771212" stroke-width="2" stroke-miterlimit="10" stroke-linecap="round" stroke-linejoin="round"/><path d="M273.664 234.558c.348-1.027 3.063-11.993 20.856-21.236 5.307-2.758 5.466 2.677.277 6.572-.558.603-3.477 4.521 6.055 0 8.944-4.243 15.604-5.702 8.94 2.025 0 0 6.602-2.265 6.474.639-.185 4.021-10.169 8.008-13.402 10.164 0 0 8.268-3.421 8.404.28.156 4.327-19.274 18.069-31.449 15.443l-6.155-13.887z" fill="#BB74A9"/><path d="M310.12 221.71s-6.113 4.269-11.156 4.789" stroke="#771212" stroke-width="2" stroke-miterlimit="10" stroke-linecap="round" stroke-linejoin="round"/><path fill-rule="evenodd" clip-rule="evenodd" d="M194.656 308.198s-37.985-16.427-40.334-21.648c0 0 13.641-27.351 13.081-39.68 0 0 11.847-1.423 31.747-5.492 22-12.941 26.347 8.687 26.347 8.687s-5.815 37.435-30.841 58.133z" fill="#D06060"/><path fill-rule="evenodd" clip-rule="evenodd" d="M274.161 270.988c1.954.999 3.293 4.746 1.446 5.945-6.413 5.298-21.042 25.902-61.273 25.909-27.819 3.004-19.473.004-22.038-16.485 0 0-1.817-37.559-2.774-43.255 6.42-.001 32.957-11.57 32.957-11.57s35.005 32.465 51.682 39.456z" fill="#FEF4F6"/><path d="M148.328 269.457c10.255-2.535 14.76-9.274 17.273-14.291.567-1.933 1.357-4.659.948-6.331 6.924 1.854 23.684-.846 24.578-1.36 5.722-.828 16.299-4.934 16.097-5.763-.203-.829.314-2.88-.58-2.366-10.158 3.097-32.029 5.485-39.815 7.076.758-6.635-4.995-14.883-10.814-17.84-3.036-1.301-5.803-1.497-7.844-.113-1.467.949-2.479 2.371-2.462 3.832-.101 2.369 1.924 5.092 4.589 7.657-2.901-.748-5.988-.864-8.299-.586-2.564.634-4.284 1.938-4.773 4.11-1.113 3.792-.623 7.187 2.228 9.12 3.897 3.433 11.74 3.545 20.899.695.641-.158 1.535-.672 2.175-.831-.982 3.972-15.238 15.316-22.128 15.141-6.494-.154-10.357-.664-12.802-.939-4.892-.549-6.629-.705-13.292 1.234-.961.238-1.4 1.226-1.265 1.778.203.829 1.299 1.144 1.94.986 6.022-1.781 7.051-1.743 11.942-1.193 2.766.195 6.629.705 13.123.858 3.087.117 6.039-.32 8.282-.874zm13.711-20.386c-.827.79-1.72 1.304-3.002 1.621-7.877 2.533-14.692 2.459-17.745-.303-2.142-1.814-1.788-4.539-1.232-6.435.185-.632.624-1.619 2.547-2.095 4.773-1.18 18.277 2.485 19.432 7.212zm-11.405-18.867c1.282-.316 2.446.275 3.543.59 4.655 2.366 9.75 9.312 9.363 14.682-5.179-3.115-14.642-9.86-14.559-13.691-.135-.553.118-.908.692-1.343l.961-.238z" fill="#FEF4F6"/><path d="M216.702 217.03a1.499 1.499 0 1 0-1.296-2.706l1.296 2.706zm-33.44 6.571c6.117.219 21.325-.771 33.44-6.571l-1.296-2.706c-11.508 5.509-26.171 6.489-32.037 6.279l-.107 2.998z" fill="#D5861A"/><path d="M233.6 218.033c-.963-1.285-11.127-2.57-17.332-2.57 0 4.712 4.779 12.065 4.921 16.706l6.848 3.64s6.526-16.491 5.563-17.776z" fill="#D4861A"/><path d="M228.094 351.105c-1.779-7.098-5.133-22.834-3.466-35.736-1.69-.146-3.302-.37-5.08-.581 0 0-12.606-1.759-18.14 10.467-6.937 15.325.832 60.901 8.739 55.296 4.511-3.14 8.53-16.969 17.947-29.446zm-107.684-30.28c2.026-7.032 7.027-22.323 14.946-32.64-1.387-.975-2.668-1.981-4.1-3.057 0 0-14.011-9.662-20.938-.075-13.692 9.76-29.858 53.071-20.208 52.202 5.477-.446 15.894-10.38 30.3-16.43z" fill="#E7A74E"/><path fill-rule="evenodd" clip-rule="evenodd" d="M155.909 253.043c-6.499 2.43-13.883 5.441-19.273 7.757-4.868 2.091-9.18.929-12.476-1.288-3.242-2.18-5.57-5.409-6.745-7.73a1.388 1.388 0 0 1 .631-1.871 1.418 1.418 0 0 1 1.892.624c1.02 2.015 3.064 4.826 5.809 6.673 2.691 1.809 5.98 2.661 9.764 1.035 5.424-2.33 12.851-5.359 19.399-7.808 3.273-1.223 6.342-2.308 8.838-3.089a50.719 50.719 0 0 1 3.308-.932c.91-.215 1.753-.367 2.4-.367.779 0 1.411.624 1.411 1.394 0 .77-.632 1.394-1.411 1.394-.293 0-.861.081-1.742.29-.85.202-1.901.5-3.115.879-2.425.759-5.439 1.823-8.69 3.039z" fill="#FEF4F6"/></svg>