<svg width="69" height="70" viewBox="0 0 69 70" fill="none" xmlns="http://www.w3.org/2000/svg"><g style="mix-blend-mode:multiply" opacity=".5"><path d="M65.461 70H3.75C1.995 70 .576 68.176.576 65.922v-.766c0-2.254 1.42-4.078 3.173-4.078h61.7c1.753 0 3.173 1.824 3.173 4.078v.766c.012 2.254-1.408 4.078-3.16 4.078z" fill="#8C8C8C"/></g><path d="M24.76 20.62a.954.954 0 0 1-.903-.614L20.071 9.575c-1.39-3.2.077-6.82 3.348-8.247 3.36-1.467 8.713-.513 12.76 6.995l.027.052 5.026 10.987a.883.883 0 0 1-.497 1.184.973.973 0 0 1-1.252-.47L34.47 9.115c-2.148-3.97-6.118-7.958-10.254-6.154-2.03.886-3.553 3.273-2.374 5.952l.021.052 3.795 10.462a.889.889 0 0 1-.592 1.145.972.972 0 0 1-.307.049z" fill="#8B1332"/><path d="M60.88 65.784H24.37c-2.558 0-6.4-2.004-6.326-4.421l1.97-40.524c.07-2.32 1.114-5.69 3.565-5.69h33.513a2.209 2.209 0 0 1 2.24 1.907l3.26 40.913.154 5.919a1.815 1.815 0 0 1-1.865 1.896z" fill="#EA0029"/><path d="M24.374 65.784H8.727a1.255 1.255 0 0 1-1.295-1.28c.064-1.328 1.97-37.47 2.783-48.3a1.194 1.194 0 0 1 1.2-1.056h14.113a1.13 1.13 0 0 1 1.138.957s-.516 45.837-.476 47.93a1.769 1.769 0 0 1-1.816 1.749z" fill="#8B1332"/><path d="M49.165 20.62a.972.972 0 0 1-.306-.049.886.886 0 0 1-.593-1.144l3.817-10.514c1.178-2.679-.347-5.066-2.378-5.953-2.586-1.129-6.82-.19-10.25 6.155L34.44 20.068a.976.976 0 0 1-1.251.47.883.883 0 0 1-.497-1.185l5.053-11.045c4.044-7.507 9.4-8.462 12.757-6.995 3.274 1.427 4.74 5.047 3.35 8.247l-3.785 10.43a.954.954 0 0 1-.902.614" fill="#EA0029"/><path d="M39.394 50.592c.152.236.366.425.618.546a1.489 1.489 0 0 0 1.57-.177 1.52 1.52 0 0 0 .485-.67l6.878-18.584a1.552 1.552 0 0 0-.152-1.368 1.517 1.517 0 0 0-.62-.546 1.491 1.491 0 0 0-1.57.177 1.53 1.53 0 0 0-.487.67l-6.888 18.577a1.553 1.553 0 0 0 .166 1.375zm8.004-4.404a5.046 5.046 0 0 0 1.945 1.798 4.62 4.62 0 0 0 2.468.503 5.371 5.371 0 0 0 2.485-.87 5.47 5.47 0 0 0 1.79-1.951 4.749 4.749 0 0 0 .53-2.5 5.117 5.117 0 0 0-.86-2.54 5.083 5.083 0 0 0-1.953-1.809 4.587 4.587 0 0 0-2.478-.503 5.338 5.338 0 0 0-2.477.875 5.443 5.443 0 0 0-1.777 1.956 4.778 4.778 0 0 0-.533 2.507 5.17 5.17 0 0 0 .86 2.533zm6.328-4.217a2.413 2.413 0 0 1 .357 1.922 2.802 2.802 0 0 1-1.149 1.618 2.734 2.734 0 0 1-1.919.434 2.531 2.531 0 0 1-1.583-1.102 2.598 2.598 0 0 1-.366-1.91 2.577 2.577 0 0 1 1.157-1.601 2.55 2.55 0 0 1 1.915-.441 2.314 2.314 0 0 1 1.588 1.081zM32.36 40.31a5.084 5.084 0 0 0 1.955 1.812 4.6 4.6 0 0 0 2.471.503 5.385 5.385 0 0 0 2.483-.883 5.483 5.483 0 0 0 1.782-1.962c.4-.768.583-1.633.53-2.5a5.477 5.477 0 0 0-.861-2.532 5.38 5.38 0 0 0-1.951-1.807 4.595 4.595 0 0 0-2.478-.502c-.883.08-1.733.38-2.475.874a5.443 5.443 0 0 0-1.777 1.953 4.746 4.746 0 0 0-.532 2.507c.058.907.354 1.783.856 2.537h-.003zm6.331-4.216a2.41 2.41 0 0 1 .361 1.921 2.628 2.628 0 0 1-1.156 1.614 2.532 2.532 0 0 1-1.912.428 2.525 2.525 0 0 1-1.585-1.1 2.591 2.591 0 0 1-.364-1.913c.18-.66.591-1.231 1.155-1.609a2.764 2.764 0 0 1 1.913-.442c.328.056.64.184.915.374s.505.438.677.727h-.004z" fill="#FFF0F0"/></svg>