<svg width="80" height="60" viewBox="0 0 80 60" fill="none" xmlns="http://www.w3.org/2000/svg">
<rect x="0.5" y="0.5" width="79" height="59" rx="5.5" stroke="#A6A6A5" stroke-dasharray="5 5"/>
<path fill-rule="evenodd" clip-rule="evenodd" d="M35.5389 21.6418L34.6582 23.5402H32.3351C30.4932 23.5402 29 25.0216 29 26.849V35.3382C29 37.1656 30.4932 38.6471 32.3351 38.6471H46.7874C48.6294 38.6471 50.1226 37.1656 50.1226 35.3382V26.849C50.1226 25.0216 48.6294 23.5402 46.7874 23.5402H44.4644L43.5837 21.6418C43.4022 21.2506 43.0079 21 42.5738 21H36.5488C36.1147 21 35.7204 21.2506 35.5389 21.6418ZM35.7269 25.1945L36.9053 22.6543H42.2182L43.3967 25.1945H46.7879C47.7089 25.1945 48.4555 25.9352 48.4555 26.8489V35.3381C48.4555 36.2518 47.7089 36.9925 46.7879 36.9925H32.3356C31.4146 36.9925 30.668 36.2518 30.668 35.3381V26.8489C30.668 25.9352 31.4146 25.1945 32.3356 25.1945H35.7269Z" fill="#DCDCDC"/>
<path fill-rule="evenodd" clip-rule="evenodd" d="M35.1147 30.9274C35.1147 33.3639 37.1057 35.3392 39.5616 35.3392C42.0175 35.3392 44.0085 33.3639 44.0085 30.9274C44.0085 28.4908 42.0175 26.5156 39.5616 26.5156C37.1057 26.5156 35.1147 28.4908 35.1147 30.9274ZM42.3414 30.9273C42.3414 32.4501 41.0971 33.6846 39.5621 33.6846C38.0272 33.6846 36.7828 32.4501 36.7828 30.9273C36.7828 29.4044 38.0272 28.1699 39.5621 28.1699C41.0971 28.1699 42.3414 29.4044 42.3414 30.9273Z" fill="#DCDCDC"/>
</svg>
