<svg width="348" height="305" viewBox="0 0 348 305" fill="none" xmlns="http://www.w3.org/2000/svg">
<mask id="mask0" mask-type="alpha" maskUnits="userSpaceOnUse" x="0" y="0" width="348" height="305">
<rect width="348" height="305" fill="#C4C4C4"/>
</mask>
<g mask="url(#mask0)">
<path opacity="0.5" d="M57.5834 205.145C80.6171 202.653 103.615 211.078 124.536 222.775C157.614 241.285 203.879 250.772 224.76 286.786C247.387 325.835 269.34 387.161 266.526 434.103C91.3938 440.294 -35.4264 434.103 -129.463 434.103C-108.191 370.6 -62.3518 292.886 -18.58 249.515C3.43778 227.592 28.9806 208.23 57.5834 205.145Z" fill="#F8DDDC"/>
<path fill-rule="evenodd" clip-rule="evenodd" d="M46.6932 280.719C75.1021 261.484 131.239 251.886 171.457 290.247C211.674 328.609 48.7926 313.598 30.0244 310.596C11.2561 307.594 41.8981 283.961 46.6932 280.719Z" fill="#EC9D3B"/>
<path fill-rule="evenodd" clip-rule="evenodd" d="M145.65 312.931C147.34 296.971 150.17 256.049 159.194 241.682C162.822 235.96 180.142 217.841 180.142 217.841C180.142 217.841 183.496 218.113 181.169 221.315C179.252 223.835 174.802 231.124 173.159 233.849C172.817 234.393 173.022 235.075 173.638 235.347C175.449 236.179 182.049 238.447 184.618 245.187C185.637 247.307 186.077 253.146 182.983 250.764C182.983 250.764 183.684 257.213 181.086 256.429C179.481 261.832 176.377 258.235 176.034 256.123C175.692 254.148 174.871 251.764 172.748 251.287L169.446 256.123C167.871 258.439 166.998 262.595 168.367 265.047L181.169 312.931" fill="#B170A0"/>
<path d="M173.03 246.335C173.027 246.4 173.025 246.468 173.022 246.539L173.03 246.335ZM173.03 246.335L173.037 246.131L174.249 246.754C174.286 246.643 174.311 246.521 174.316 246.387C174.251 246.369 174.188 246.351 174.127 246.335C173.53 246.177 173.12 246.137 173.037 246.131C173.035 246.195 173.032 246.263 173.03 246.335Z" fill="#614263" stroke="#78577A" stroke-width="3"/>
<path d="M173.622 240.362L173.622 240.361C173.622 240.361 173.622 240.361 173.622 240.361C173.622 240.361 173.622 240.362 173.622 240.362ZM173.622 240.362L173.595 240.498C173.604 240.451 173.613 240.406 173.622 240.362Z" fill="#614263" stroke="#78577A" stroke-width="3"/>
<path fill-rule="evenodd" clip-rule="evenodd" d="M172.817 251.287C172.474 251.014 163.575 252.921 165.492 256.395L167.546 261.981V260.346C167.888 258.167 168.846 257.077 169.188 256.6L172.817 251.287Z" fill="#78577A"/>
<path fill-rule="evenodd" clip-rule="evenodd" d="M176.924 221.315C176.924 221.315 181.237 221.247 182.059 219.271C182.059 219.271 181.99 218.045 180.21 217.841L176.924 221.315Z" fill="#78577A"/>
<path fill-rule="evenodd" clip-rule="evenodd" d="M82.5226 247.335L77.6621 277.375C77.6621 277.375 120.812 298.234 117.435 285.822C114.059 273.41 105.592 253.057 105.592 253.057C105.592 253.057 98.7468 257.212 89.1629 254.623L82.5226 247.335Z" fill="#B170A0"/>
<path fill-rule="evenodd" clip-rule="evenodd" d="M83.4123 242.157C83.4123 242.157 72.1853 235.482 76.7719 244.61C81.2901 253.806 84.9183 251.967 84.7129 251.694C84.5076 251.422 90.5317 258.37 103.539 254.078C116.545 249.787 108.399 232.621 108.399 232.621C108.399 232.621 103.47 216.545 87.1774 224.651C70.8847 232.757 83.4123 242.157 83.4123 242.157Z" fill="#E3B6E4"/>
<path fill-rule="evenodd" clip-rule="evenodd" d="M80.8731 218.185C58.4193 227.858 77.4564 247.336 77.4564 247.336L105.044 230.851C106.003 230.306 106.482 229.08 106.071 228.058C104.154 223.085 93.606 213.076 80.8731 218.185Z" fill="#E4002B"/>
<path fill-rule="evenodd" clip-rule="evenodd" d="M92.2736 230.371C97.0601 227.699 101.73 224.677 105.798 227.036C108.399 230.374 120.721 247.54 103.539 254.147C87.9305 259.597 82.4422 252.906 82.6475 253.179C82.8529 253.451 79.2307 257.645 74.6442 248.517C72.6589 244.43 71.9318 234.505 80.7469 239.232C84.4266 236.971 82.2469 235.969 92.2736 230.371Z" fill="#B170A0"/>
<path fill-rule="evenodd" clip-rule="evenodd" d="M103.702 229.259C101.974 230.062 103.933 234.188 105.776 233.386C107.504 232.584 105.43 228.457 103.702 229.259Z" fill="#63206E"/>
<path fill-rule="evenodd" clip-rule="evenodd" d="M98.3113 231.426C96.5833 232.228 98.5417 236.355 100.385 235.552C101.998 234.75 100.039 230.623 98.3113 231.426Z" fill="#63206E"/>
<path fill-rule="evenodd" clip-rule="evenodd" d="M101.479 240.323C101.613 240.737 101.385 241.182 100.968 241.316C100.747 241.387 100.471 241.401 100.254 241.405C100.006 241.41 99.7114 241.402 99.3957 241.385C98.7625 241.353 98.0011 241.286 97.2741 241.213C96.545 241.139 95.8414 241.057 95.3206 240.995C95.06 240.963 94.8448 240.936 94.6945 240.917C94.6194 240.908 94.5604 240.9 94.5201 240.895L94.4581 240.887C94.458 240.887 94.4577 240.887 94.5614 240.104L94.6651 239.322L94.7241 239.329C94.7632 239.334 94.8209 239.342 94.8947 239.351C95.0424 239.37 95.2545 239.396 95.5116 239.427C96.0261 239.49 96.7189 239.57 97.4344 239.642C98.1519 239.715 98.8831 239.778 99.4776 239.809C99.7757 239.824 100.029 239.831 100.223 239.827C100.37 239.824 100.447 239.816 100.475 239.812C100.49 239.811 100.49 239.811 100.481 239.814C100.898 239.68 101.344 239.908 101.479 240.323ZM93.7752 240.001C93.8324 239.569 94.2309 239.265 94.6651 239.322L94.5614 240.104L94.4581 240.887C94.0239 240.83 93.7179 240.433 93.7752 240.001Z" fill="#63206E"/>
<path d="M102.605 255.101C93.7999 257.153 84.0341 254.972 81.9533 253.262L81.3904 258.611C91.984 262.999 99.3741 257.781 102.605 255.101Z" fill="#78577A"/>
<path fill-rule="evenodd" clip-rule="evenodd" d="M147.377 188.792L144.313 182.106C143.277 179.844 144.711 176.915 147.539 175.631L167.135 166.734C169.963 165.45 173.102 166.241 174.161 168.554L190.035 203.189C191.072 205.451 189.638 208.379 186.809 209.663L167.214 218.56C164.385 219.845 161.247 219.053 160.187 216.741L153.759 202.716" fill="#E4002B"/>
<path fill-rule="evenodd" clip-rule="evenodd" d="M185.712 210.131L166.06 167.252L159.311 170.499L178.894 213.227L185.712 210.131Z" fill="#862428"/>
<path fill-rule="evenodd" clip-rule="evenodd" d="M213.115 214.189C212.299 217.147 210.558 217.866 208.879 217.357L197.149 213.954C195.471 213.445 195.286 211.786 195.797 210.115L204.063 183.124C204.574 181.453 206.363 180.505 208.042 181.014L218.93 184.317C220.608 184.826 221.562 186.607 221.05 188.277L213.092 214.338L213.115 214.189Z" fill="#862428"/>
<path fill-rule="evenodd" clip-rule="evenodd" d="M214.644 209.261L213.21 213.946C212.719 215.548 211.023 216.429 209.413 215.941L198.24 212.551C196.629 212.062 195.722 210.369 196.206 208.787L203.627 184.555C204.117 182.953 205.813 182.071 207.424 182.56L218.597 185.949C220.208 186.438 221.115 188.132 220.631 189.713L217.625 199.528" fill="#E4002B"/>
<ellipse rx="6.38874" ry="6.36397" transform="matrix(0.956933 0.290309 -0.292807 0.956172 208.947 197.844)" fill="#FA576B"/>
<path fill-rule="evenodd" clip-rule="evenodd" d="M209.903 194.505L210.883 194.859C211.065 194.925 211.159 195.126 211.093 195.308C211.026 195.49 210.824 195.584 210.642 195.518L209.658 195.163C209.656 195.163 209.654 195.162 209.651 195.161C209.299 195.025 209.047 195.019 208.868 195.059C208.689 195.099 208.553 195.192 208.445 195.306C208.336 195.423 208.26 195.559 208.211 195.671C208.187 195.726 208.171 195.773 208.161 195.805C208.156 195.82 208.153 195.832 208.151 195.839C208.15 195.842 208.149 195.845 208.149 195.845M209.903 194.505C209.451 194.332 209.056 194.299 208.715 194.375C208.373 194.452 208.117 194.631 207.932 194.827C207.75 195.021 207.635 195.234 207.566 195.394C207.531 195.474 207.506 195.544 207.49 195.595C207.482 195.621 207.476 195.642 207.472 195.657C207.471 195.661 207.47 195.665 207.469 195.668C207.329 196.098 207.464 196.533 207.719 196.873C207.977 197.217 208.378 197.497 208.847 197.651C209.204 197.771 209.407 197.939 209.526 198.104C209.646 198.271 209.698 198.46 209.71 198.651C209.722 198.844 209.692 199.029 209.657 199.168C209.64 199.237 209.622 199.293 209.609 199.33C209.602 199.349 209.597 199.362 209.593 199.371C209.592 199.375 209.591 199.378 209.59 199.379L209.59 199.38L209.59 199.379L209.59 199.379C209.59 199.379 209.59 199.379 209.913 199.518C210.236 199.657 210.236 199.657 210.236 199.656L210.236 199.656L210.236 199.655L210.237 199.653L210.24 199.647C210.24 199.645 210.241 199.644 210.242 199.642C210.094 200.062 209.734 200.337 209.328 200.466C208.916 200.597 208.428 200.592 207.956 200.438C207.953 200.437 207.95 200.436 207.947 200.435L206.876 200.053C206.693 199.988 206.598 199.788 206.664 199.605C206.73 199.423 206.931 199.328 207.114 199.393L208.18 199.773C208.179 199.773 208.177 199.772 208.176 199.772L208.066 200.105L208.185 199.775L208.18 199.773C208.525 199.884 208.859 199.88 209.115 199.798C209.373 199.716 209.525 199.568 209.58 199.406C209.583 199.397 209.586 199.388 209.59 199.38C209.59 199.379 209.59 199.379 209.59 199.379L209.913 199.518L210.246 199.629C210.245 199.633 210.243 199.638 210.242 199.642C210.243 199.638 210.245 199.633 210.248 199.628C210.254 199.612 210.262 199.59 210.272 199.562C210.291 199.508 210.316 199.431 210.34 199.338C210.386 199.153 210.43 198.893 210.412 198.606C210.394 198.317 210.312 197.992 210.097 197.694C209.881 197.394 209.548 197.146 209.072 196.986L209.069 196.985C208.721 196.871 208.446 196.67 208.283 196.452C208.119 196.234 208.088 196.031 208.14 195.877C208.144 195.867 208.147 195.856 208.149 195.846C208.149 195.846 208.149 195.846 208.149 195.846M208.149 195.844C208.149 195.844 208.149 195.844 208.149 195.844L207.807 195.765C208.149 195.844 208.149 195.844 208.149 195.844Z" fill="#FFE6F0"/>
<path fill-rule="evenodd" clip-rule="evenodd" d="M209.903 194.505L210.883 194.859C211.065 194.925 211.159 195.126 211.093 195.308C211.026 195.49 210.824 195.584 210.642 195.518L209.658 195.163C209.656 195.163 209.654 195.162 209.651 195.161C209.299 195.025 209.047 195.019 208.868 195.059C208.689 195.099 208.553 195.192 208.445 195.306C208.336 195.423 208.26 195.559 208.211 195.671C208.187 195.726 208.171 195.773 208.161 195.805C208.156 195.82 208.153 195.832 208.151 195.839C208.15 195.842 208.149 195.845 208.149 195.845M209.903 194.505C209.451 194.332 209.056 194.299 208.715 194.375C208.373 194.452 208.117 194.631 207.932 194.827C207.75 195.021 207.635 195.234 207.566 195.394C207.531 195.474 207.506 195.544 207.49 195.595C207.482 195.621 207.476 195.642 207.472 195.657C207.471 195.661 207.47 195.665 207.469 195.668C207.329 196.098 207.464 196.533 207.719 196.873C207.977 197.217 208.378 197.497 208.847 197.651C209.204 197.771 209.407 197.939 209.526 198.104C209.646 198.271 209.698 198.46 209.71 198.651C209.722 198.844 209.692 199.029 209.657 199.168C209.64 199.237 209.622 199.293 209.609 199.33C209.602 199.349 209.597 199.362 209.593 199.371C209.592 199.375 209.591 199.378 209.59 199.379L209.59 199.38L209.59 199.379L209.59 199.379C209.59 199.379 209.59 199.379 209.913 199.518C210.236 199.657 210.236 199.657 210.236 199.656L210.236 199.656L210.236 199.655L210.237 199.653L210.24 199.647C210.24 199.645 210.241 199.644 210.242 199.642C210.094 200.062 209.734 200.337 209.328 200.466C208.916 200.597 208.428 200.592 207.956 200.438C207.953 200.437 207.95 200.436 207.947 200.435L206.876 200.053C206.693 199.988 206.598 199.788 206.664 199.605C206.73 199.423 206.931 199.328 207.114 199.393L208.18 199.773C208.179 199.773 208.177 199.772 208.176 199.772L208.066 200.105L208.185 199.775L208.18 199.773C208.525 199.884 208.859 199.88 209.115 199.798C209.373 199.716 209.525 199.568 209.58 199.406C209.583 199.397 209.586 199.388 209.59 199.38C209.59 199.379 209.59 199.379 209.59 199.379L209.913 199.518L210.246 199.629C210.245 199.633 210.243 199.638 210.242 199.642C210.243 199.638 210.245 199.633 210.248 199.628C210.254 199.612 210.262 199.59 210.272 199.562C210.291 199.508 210.316 199.431 210.34 199.338C210.386 199.153 210.43 198.893 210.412 198.606C210.394 198.317 210.312 197.992 210.097 197.694C209.881 197.394 209.548 197.146 209.072 196.986L209.069 196.985C208.721 196.871 208.446 196.67 208.283 196.452C208.119 196.234 208.088 196.031 208.14 195.877C208.144 195.867 208.147 195.856 208.149 195.846C208.149 195.846 208.149 195.846 208.149 195.846M208.149 195.844C208.149 195.844 208.149 195.844 208.149 195.844L207.807 195.765C208.149 195.844 208.149 195.844 208.149 195.844Z" fill="#C23748"/>
<path fill-rule="evenodd" clip-rule="evenodd" d="M210.172 193.062C210.36 193.111 210.472 193.302 210.422 193.49L210.062 194.851C210.013 195.039 209.82 195.151 209.632 195.102C209.445 195.053 209.333 194.861 209.382 194.674L209.742 193.312C209.792 193.125 209.984 193.013 210.172 193.062Z" fill="#FFE6F0"/>
<path fill-rule="evenodd" clip-rule="evenodd" d="M210.172 193.062C210.36 193.111 210.472 193.302 210.422 193.49L210.062 194.851C210.013 195.039 209.82 195.151 209.632 195.102C209.445 195.053 209.333 194.861 209.382 194.674L209.742 193.312C209.792 193.125 209.984 193.013 210.172 193.062Z" fill="#C23748"/>
<path fill-rule="evenodd" clip-rule="evenodd" d="M208.179 199.885C208.366 199.934 208.478 200.126 208.429 200.313L208.063 201.692C208.013 201.88 207.821 201.992 207.633 201.942C207.445 201.893 207.334 201.702 207.383 201.515L207.749 200.135C207.798 199.948 207.991 199.836 208.179 199.885Z" fill="#FFE6F0"/>
<path fill-rule="evenodd" clip-rule="evenodd" d="M208.179 199.885C208.366 199.934 208.478 200.126 208.429 200.313L208.063 201.692C208.013 201.88 207.821 201.992 207.633 201.942C207.445 201.893 207.334 201.702 207.383 201.515L207.749 200.135C207.798 199.948 207.991 199.836 208.179 199.885Z" fill="#C23748"/>
<path d="M72.543 241.178C72.7526 241.114 72.8698 241.027 73.0544 241.074C73.4234 241.168 73.558 241.437 73.458 241.88L71.426 251.32C71.376 251.542 71.351 251.653 71.1415 251.716L57.364 262.615C57.1545 262.679 57.0372 262.766 56.8527 262.719C56.4836 262.625 56.4663 262.269 56.5663 261.826L60.8686 250.973C60.8936 250.862 61.0109 250.775 61.0359 250.664L72.543 241.178Z" fill="#E12E2C"/>
<path d="M36.9662 257.397C36.5976 257.524 36.1454 257.519 35.7403 257.306C35.1209 257.037 34.7501 256.169 35.1294 255.493C38.0671 249.502 44.3713 237.631 48.2397 238.064C53.3103 238.694 73.7003 241.239 73.7003 241.239L36.9662 257.397Z" fill="#E12E2C"/>
<path d="M124.604 188.293C123.231 188.585 123.045 189.001 123.587 191.203C125.737 203.32 124.817 208.214 123.313 212.464C122.821 213.853 122.756 214.452 124.178 215.049L137.599 216.483C137.599 216.483 138.512 216.825 138.933 215.949C141.896 199.968 138.827 189.23 136.256 183.894C135.974 183.501 135.876 183.306 135.388 183.456C132.835 184.239 128.829 187.395 124.604 188.293Z" fill="#E4002B"/>
<path d="M136.828 198.772C137.77 201.521 136.465 204.451 133.915 205.317C131.364 206.183 128.534 204.657 127.592 201.908C126.65 199.159 127.955 196.229 130.505 195.363C133.056 194.497 135.887 196.024 136.828 198.772Z" fill="#FA576B"/>
<path fill-rule="evenodd" clip-rule="evenodd" d="M129.57 200.476L129.576 199.684C129.578 199.539 129.697 199.422 129.843 199.423C129.989 199.424 130.106 199.542 130.105 199.688L130.099 200.484C130.099 200.487 130.099 200.49 130.099 200.493C130.087 200.781 130.146 200.966 130.22 201.085C130.294 201.205 130.397 201.28 130.508 201.33C130.622 201.38 130.742 201.4 130.837 201.407C130.884 201.411 130.923 201.411 130.948 201.41C130.961 201.409 130.971 201.409 130.977 201.408C130.979 201.408 130.981 201.408 130.982 201.408M129.57 200.476C129.556 200.844 129.63 201.136 129.77 201.362C129.911 201.589 130.105 201.728 130.294 201.811C130.481 201.893 130.665 201.922 130.798 201.932C130.866 201.937 130.923 201.937 130.964 201.936C130.985 201.935 131.001 201.934 131.014 201.933C131.017 201.933 131.02 201.933 131.023 201.933C131.367 201.924 131.647 201.721 131.83 201.452C132.014 201.18 132.116 200.822 132.109 200.444C132.109 200.158 132.182 199.97 132.273 199.843C132.366 199.715 132.492 199.629 132.63 199.573C132.768 199.516 132.911 199.492 133.022 199.483C133.077 199.478 133.122 199.477 133.153 199.478C133.168 199.478 133.18 199.478 133.187 199.479C133.188 199.479 133.19 199.479 133.191 199.479C133.192 199.479 133.193 199.479 133.194 199.479C133.194 199.479 133.194 199.479 133.194 199.479C133.194 199.479 133.194 199.479 133.194 199.479C133.202 199.48 133.21 199.48 133.217 199.48C133.35 199.478 133.495 199.55 133.619 199.717C133.742 199.883 133.83 200.128 133.836 200.416L133.832 201.276C133.831 201.421 133.949 201.539 134.095 201.54C134.241 201.54 134.36 201.423 134.361 201.278L134.364 200.415C134.364 200.413 134.364 200.411 134.364 200.409C134.357 200.024 134.241 199.669 134.044 199.404C133.85 199.142 133.563 198.954 133.222 198.954C133.219 198.953 133.215 198.953 133.211 198.953C133.198 198.952 133.18 198.952 133.158 198.952C133.113 198.951 133.052 198.952 132.978 198.959C132.832 198.971 132.633 199.003 132.429 199.087C132.223 199.171 132.007 199.309 131.844 199.537C131.678 199.766 131.58 200.066 131.581 200.447C131.581 200.449 131.581 200.45 131.581 200.451C131.586 200.736 131.508 200.986 131.391 201.158C131.274 201.33 131.134 201.405 131.006 201.407C130.998 201.407 130.99 201.407 130.982 201.408C130.982 201.408 130.982 201.408 130.982 201.408" fill="#C23748"/>
<path fill-rule="evenodd" clip-rule="evenodd" d="M128.454 200.637C128.444 200.492 128.555 200.366 128.7 200.357L129.787 200.287C129.933 200.277 130.058 200.387 130.068 200.532C130.077 200.677 129.967 200.802 129.821 200.812L128.734 200.882C128.589 200.891 128.463 200.781 128.454 200.637Z" fill="#C23748"/>
<path fill-rule="evenodd" clip-rule="evenodd" d="M133.923 200.373C133.914 200.228 134.024 200.103 134.17 200.093L135.257 200.023C135.402 200.013 135.528 200.123 135.537 200.268C135.547 200.413 135.436 200.538 135.291 200.548L134.204 200.618C134.058 200.628 133.933 200.518 133.923 200.373Z" fill="#C23748"/>
<path fill-rule="evenodd" clip-rule="evenodd" d="M125.946 189.064C125.96 189.017 125.998 188.981 126.045 188.968C127.704 188.509 131.248 187.46 133.636 185.395C133.672 185.364 133.723 185.353 133.77 185.366C133.817 185.38 133.853 185.417 133.867 185.463C133.939 185.715 134.193 186.242 134.59 186.668C134.987 187.094 135.5 187.394 136.101 187.268C136.173 187.253 136.245 187.295 136.267 187.366C137.101 190.061 138.208 194.276 138.741 198.763C139.273 203.247 139.235 208.02 137.764 211.821C137.752 211.853 137.728 211.88 137.697 211.896C137.647 211.921 137.591 211.949 137.529 211.979C137.196 212.144 136.709 212.384 136.308 212.756C135.842 213.188 135.508 213.787 135.705 214.643C135.716 214.687 135.704 214.733 135.674 214.768C135.644 214.802 135.6 214.82 135.554 214.816L126.535 214.074C126.495 214.071 126.458 214.051 126.433 214.019C126.409 213.987 126.399 213.946 126.406 213.907C126.517 213.304 126.391 212.875 126.147 212.553C125.898 212.225 125.514 211.992 125.081 211.811C125.019 211.785 124.983 211.719 124.996 211.653C125.831 207.353 126.941 198.695 124.61 192.097C124.597 192.061 124.599 192.021 124.616 191.987C124.633 191.953 124.664 191.927 124.7 191.915C125.376 191.696 125.746 191.078 125.918 190.454C126.003 190.145 126.037 189.843 126.036 189.605C126.036 189.486 126.027 189.386 126.012 189.311C126.005 189.274 125.997 189.245 125.989 189.225C125.981 189.206 125.976 189.199 125.976 189.199L125.977 189.199C125.944 189.163 125.932 189.112 125.946 189.064ZM126.279 189.198C126.284 189.218 126.289 189.238 126.292 189.257C126.311 189.354 126.321 189.472 126.322 189.604C126.323 189.867 126.286 190.195 126.193 190.53C126.021 191.156 125.644 191.839 124.925 192.135C127.203 198.735 126.126 207.282 125.298 211.595C125.712 211.779 126.105 212.025 126.375 212.381C126.65 212.743 126.788 213.206 126.711 213.803L135.391 214.517C135.253 213.636 135.628 212.999 136.114 212.548C136.548 212.145 137.08 211.883 137.411 211.72C137.449 211.702 137.485 211.684 137.517 211.668C138.944 207.94 138.985 203.245 138.457 198.797C137.935 194.398 136.857 190.258 136.03 187.568C135.347 187.656 134.784 187.294 134.381 186.861C134.037 186.492 133.792 186.055 133.664 185.744C131.303 187.704 127.959 188.728 126.279 189.198Z" fill="#821F2B"/>
</g>
</svg>
