<svg width="71" height="64" viewBox="0 0 71 64" fill="none" xmlns="http://www.w3.org/2000/svg"><path d="M69.073 32.013C64.86 44.17 57.048 53.367 45.335 59.278a39.022 39.022 0 0 1-14.114 4.007c-1.367.125-2.743.183-3.436.23-5.762-.028-10.65-.903-15.263-3.056a21.16 21.16 0 0 1-7.745-5.91 16.72 16.72 0 0 1-3.635-8.88c-.399-3.69.076-7.323 1.015-10.878C5.014 24.008 10.89 15.147 20.05 8.468 25.82 4.249 32.645 1.625 39.801.857c4.888-.558 9.73-.385 14.513.845 3.72.952 7.166 2.46 10.137 4.902 3.844 3.046 6.198 7.534 6.483 12.368a32.324 32.324 0 0 1-1.86 13.041z" fill="#DCDCDC"/><g clip-path="url(#clip0)"><path d="M34.95 31.45H10.39v12.28h24.56V31.45z" fill="#BF9766"/><path d="M.65 16.22L21.6 5.25c.63-.33 1.52-.33 2.15 0L44.7 16.22c1.27.67.55 2.01-1.08 2.01H1.73c-1.63 0-2.35-1.35-1.08-2.01z" fill="#991A30"/><path d="M3.85 18.23v19.56c0 3.28 2.66 5.95 5.95 5.95h2.15c3.28 0 5.95-2.66 5.95-5.95v-5.37c0-.27.22-.49.49-.49h8.57c.27 0 .49.22.49.49v5.37c0 3.28 2.66 5.95 5.95 5.95h2.15c3.28 0 5.95-2.66 5.95-5.95V18.23H3.85z" fill="#fff"/><path d="M41.49 18.23H3.85v1.51h37.64v-1.51z" fill="#F2F2F2"/><path d="M68.51 38.45l-.97-5.83c-.1-.61-.68-1.03-1.3-.93l-35.19 5.88c-.61.1-1.03.68-.93 1.3l.97 5.83 37.42-6.25z" fill="#991A30"/><path d="M67.51 32.5a5.374 5.374 0 0 0-6.18-4.41L34.5 32.57c-2.92.49-4.9 3.26-4.41 6.18.12.69.77 1.16 1.46 1.04l34.91-5.83c.7-.12 1.17-.77 1.05-1.46zm-1.19 4.37L32.64 42.5a1.9 1.9 0 0 0-1.56 2.18l1.77 10.61c.49 2.92 3.26 4.9 6.18 4.41l26.83-4.48c2.92-.49 4.9-3.26 4.41-6.18L68.5 38.43a1.9 1.9 0 0 0-2.18-1.56z" fill="#EC1D2C"/><path d="M44.83 52l-5.35.89c-.77.13-1.51-.4-1.64-1.17-.13-.77.4-1.51 1.17-1.64l5.35-.89c.77-.13 1.51.4 1.64 1.17.12.77-.39 1.51-1.17 1.64zm16.5-28.1h-8.57c-.91 0-1.66-.75-1.66-1.66 0-.91.75-1.66 1.66-1.66h8.57c.91 0 1.66.75 1.66 1.66.01.91-.72 1.66-1.66 1.66zM23.72 50.71h-4.03c-.91 0-1.66-.75-1.66-1.66 0-.91.75-1.66 1.66-1.66h4.03c.91 0 1.66.75 1.66 1.66 0 .91-.73 1.66-1.66 1.66z" fill="#fff"/><path d="M20.46 20.87h-6.79c-1.6 0-2.9 1.3-2.9 2.9v2.14c0 1.6 1.3 2.9 2.9 2.9h6.79c.6 0 1.08-.48 1.08-1.08v-5.77c0-.6-.48-1.09-1.08-1.09zm11.22 0h-6.79c-.6 0-1.08.48-1.08 1.08v5.77c0 .6.48 1.08 1.08 1.08h6.79c1.6 0 2.9-1.3 2.9-2.9v-2.14a2.9 2.9 0 0 0-2.9-2.89z" fill="#DCDCDC"/></g><defs><clipPath id="clip0"><path fill="#fff" transform="translate(0 5)" d="M0 0h70.35v54.77H0z"/></clipPath></defs></svg>